<svg width="36" height="36" viewBox="0 0 36 36" fill="none" xmlns="http://www.w3.org/2000/svg">
<path d="M31.577 29.6348C16.2646 36.7065 6.76158 30.7898 0.678374 27.1962C0.301947 26.9697 -0.337846 27.2491 0.217262 27.8679C2.24388 30.2524 8.88554 36 17.5548 36C26.2301 36 31.3911 31.4065 32.0367 30.6052C32.678 29.8106 32.225 29.3723 31.5769 29.6348H31.577ZM35.8775 27.3302C35.4663 26.8106 33.3771 26.7137 32.0623 26.8704C30.7455 27.0226 28.7689 27.8036 28.9408 28.2725C29.0289 28.4482 29.2089 28.3694 30.1135 28.2905C31.0206 28.2026 33.5618 27.8914 34.0913 28.5631C34.6232 29.2395 33.2808 32.4614 33.0356 32.981C32.7987 33.5006 33.1261 33.6346 33.5711 33.2885C34.0099 32.9426 34.8044 32.0467 35.3375 30.7788C35.867 29.5041 36.1899 27.7258 35.8774 27.3302H35.8775Z" fill="#FF9900"/>
<path fill-rule="evenodd" clip-rule="evenodd" d="M21.2822 15.2061C21.2822 17.0616 21.3306 18.609 20.3641 20.2568C19.584 21.5966 18.3484 22.4205 16.9678 22.4205C15.0832 22.4205 13.9857 21.0272 13.9857 18.9707C13.9857 14.9112 17.7339 14.1745 21.2822 14.1745V15.2061ZM26.2317 26.8149C25.9072 27.0962 25.4378 27.1164 25.072 26.9287C23.4429 25.6159 23.1529 25.0063 22.2555 23.7536C19.5634 26.4197 17.6581 27.2168 14.1652 27.2168C10.0372 27.2168 6.82031 24.7449 6.82031 19.7946C6.82031 15.9296 8.98109 13.2969 12.0527 12.0109C14.7174 10.8719 18.4382 10.671 21.2822 10.3563V9.73995C21.2822 8.60781 21.3719 7.26811 20.6886 6.29016C20.0879 5.4126 18.9421 5.05085 17.9341 5.05085C16.0635 5.05085 14.3929 5.98192 13.9857 7.91113C13.9027 8.33995 13.5784 8.762 13.1366 8.78205L8.37345 8.28644C7.97316 8.19918 7.5314 7.88444 7.64184 7.28816C8.7394 1.68818 13.951 0 18.6174 0C21.0059 0 24.126 0.616336 26.0106 2.37145C28.3991 4.53505 28.1713 7.42215 28.1713 10.5638V17.986C28.1713 20.2167 29.1239 21.1946 30.0212 22.4005C30.3387 22.8291 30.4079 23.3451 30.0074 23.6665C29.0065 24.4769 27.2255 25.9842 26.2453 26.8283L26.2315 26.8149" fill="white"/>
<path d="M31.577 29.6348C16.2646 36.7065 6.76158 30.7898 0.678374 27.1962C0.301947 26.9697 -0.337846 27.2491 0.217262 27.8679C2.24388 30.2524 8.88554 36 17.5548 36C26.2301 36 31.3911 31.4065 32.0367 30.6052C32.678 29.8106 32.225 29.3723 31.5769 29.6348H31.577ZM35.8775 27.3302C35.4663 26.8106 33.3771 26.7137 32.0623 26.8704C30.7455 27.0226 28.7689 27.8036 28.9408 28.2725C29.0289 28.4482 29.2089 28.3694 30.1135 28.2905C31.0206 28.2026 33.5618 27.8914 34.0913 28.5631C34.6232 29.2395 33.2808 32.4614 33.0356 32.981C32.7987 33.5006 33.1261 33.6346 33.5711 33.2885C34.0099 32.9426 34.8044 32.0467 35.3375 30.7788C35.867 29.5041 36.1899 27.7258 35.8774 27.3302H35.8775Z" fill="#FF9900"/>
<path fill-rule="evenodd" clip-rule="evenodd" d="M21.2822 15.2061C21.2822 17.0616 21.3306 18.609 20.3641 20.2568C19.584 21.5966 18.3484 22.4205 16.9678 22.4205C15.0832 22.4205 13.9857 21.0272 13.9857 18.9707C13.9857 14.9112 17.7339 14.1745 21.2822 14.1745V15.2061ZM26.2317 26.8149C25.9072 27.0962 25.4378 27.1164 25.072 26.9287C23.4429 25.6159 23.1529 25.0063 22.2555 23.7536C19.5634 26.4197 17.6581 27.2168 14.1652 27.2168C10.0372 27.2168 6.82031 24.7449 6.82031 19.7946C6.82031 15.9296 8.98109 13.2969 12.0527 12.0109C14.7174 10.8719 18.4382 10.671 21.2822 10.3563V9.73995C21.2822 8.60781 21.3719 7.26811 20.6886 6.29016C20.0879 5.4126 18.9421 5.05085 17.9341 5.05085C16.0635 5.05085 14.3929 5.98192 13.9857 7.91113C13.9027 8.33995 13.5784 8.762 13.1366 8.78205L8.37345 8.28644C7.97316 8.19918 7.5314 7.88444 7.64184 7.28816C8.7394 1.68818 13.951 0 18.6174 0C21.0059 0 24.126 0.616336 26.0106 2.37145C28.3991 4.53505 28.1713 7.42215 28.1713 10.5638V17.986C28.1713 20.2167 29.1239 21.1946 30.0212 22.4005C30.3387 22.8291 30.4079 23.3451 30.0074 23.6665C29.0065 24.4769 27.2255 25.9842 26.2453 26.8283L26.2315 26.8149" fill="white"/>
</svg>
