<svg width="36" height="36" viewBox="0 0 36 36" fill="none" xmlns="http://www.w3.org/2000/svg">
<g clip-path="url(#clip0_1_1116)">
<path d="M4.65513 13.9403C2.11592 13.9403 0 15.0153 0 18.2589C0 20.8285 1.42282 22.4466 4.72057 22.4466C8.60227 22.4466 8.85107 19.8947 8.85107 19.8947H6.97027C6.97027 19.8947 6.56704 21.2688 4.6059 21.2688C3.0086 21.2688 1.85979 20.1919 1.85979 18.6827H9.04788V17.7354C9.04788 16.2422 8.09805 13.9403 4.65513 13.9403ZM4.58945 15.1508C6.1099 15.1508 7.14642 16.0804 7.14642 17.4737H1.90134C1.90134 15.9945 3.2544 15.1508 4.58945 15.1508Z" fill="#E53238"/>
<path d="M9.04657 10.7998V20.8181C9.04657 21.3868 9.00586 22.1853 9.00586 22.1853H10.7997C10.7997 22.1853 10.8642 21.6118 10.8642 21.0877C10.8642 21.0877 11.7505 22.4716 14.1605 22.4716C16.6983 22.4716 18.4222 20.713 18.4222 18.1939C18.4222 15.8501 16.8388 13.9652 14.1646 13.9652C11.6605 13.9652 10.8823 15.3147 10.8823 15.3147V10.7998H9.04657ZM13.7016 15.2043C15.425 15.2043 16.5209 16.4809 16.5209 18.1939C16.5209 20.0308 15.2552 21.2324 13.7139 21.2324C11.8746 21.2324 10.8823 19.799 10.8823 18.2102C10.8823 16.7297 11.7726 15.2043 13.7016 15.2043Z" fill="#0064D2"/>
<path d="M22.8806 13.9404C19.0606 13.9404 18.8157 16.0278 18.8157 16.3615H20.717C20.717 16.3615 20.8167 15.1428 22.7495 15.1428C24.0054 15.1428 24.9786 15.7166 24.9786 16.8195V17.2121H22.7495C19.7901 17.2121 18.2256 18.0761 18.2256 19.8295C18.2256 21.555 19.6711 22.4938 21.6247 22.4938C24.2871 22.4938 25.1447 21.0257 25.1447 21.0257C25.1447 21.6096 25.1897 22.1851 25.1897 22.1851H26.88C26.88 22.1851 26.8145 21.4718 26.8145 21.0155V17.071C26.8145 14.4846 24.7242 13.9404 22.8806 13.9404ZM24.9786 18.3899V18.9133C24.9786 19.5961 24.5564 21.2935 22.0713 21.2935C20.7104 21.2935 20.1269 20.6157 20.1269 19.8294C20.1269 18.3991 22.0918 18.3899 24.9786 18.3899Z" fill="#F5AF02"/>
<path d="M25.79 14.2686H27.929L30.9989 20.4066L34.0616 14.2686H35.9993L30.4206 25.1961H28.388L29.9978 22.1499L25.79 14.2686Z" fill="#86B817"/>
</g>
<defs>
<clipPath id="clip0_1_1116">
<rect width="35.9999" height="35.9999" fill="white"/>
</clipPath>
</defs>
</svg>
