<svg width="36" height="36" viewBox="0 0 36 36" fill="none" xmlns="http://www.w3.org/2000/svg">
<rect x="-0.00195312" width="36" height="35.9998" rx="17.9999" fill="white"/>
<g clip-path="url(#clip0_1_1130)">
<path d="M15.029 35.8198C6.47902 34.2898 -0.000976562 26.9099 -0.000976562 17.9999C-0.000976562 8.09996 8.09902 0 17.999 0C27.899 0 35.999 8.09996 35.999 17.9999C35.999 26.9099 29.519 34.2898 20.969 35.8198L19.979 35.0098H16.019L15.029 35.8198Z" fill="url(#paint0_linear_1_1130)"/>
<path d="M25.0191 23.0395L25.8291 17.9995H21.0591V14.4895C21.0591 13.0495 21.5991 11.9695 23.7591 11.9695H26.0991V7.37953C24.8391 7.19953 23.3991 7.01953 22.1391 7.01953C17.9991 7.01953 15.1191 9.53952 15.1191 14.0395V17.9995H10.6191V23.0395H15.1191V35.7294C16.1091 35.9094 17.0991 35.9994 18.0891 35.9994C19.0791 35.9994 20.0691 35.9094 21.0591 35.7294V23.0395H25.0191Z" fill="white"/>
</g>
<defs>
<linearGradient id="paint0_linear_1_1130" x1="17.9999" y1="34.7479" x2="17.9999" y2="-0.00663097" gradientUnits="userSpaceOnUse">
<stop stop-color="#0062E0"/>
<stop offset="1" stop-color="#19AFFF"/>
</linearGradient>
<clipPath id="clip0_1_1130">
<rect width="36" height="35.9998" fill="white" transform="translate(-0.00195312)"/>
</clipPath>
</defs>
</svg>
