<svg width="36" height="36" viewBox="0 0 36 36" fill="none" xmlns="http://www.w3.org/2000/svg">
<g clip-path="url(#clip0_2_29)">
<path d="M18 0C7.8615 0 0 7.4295 0 17.46C0 22.707 2.151 27.243 5.652 30.375C5.9445 30.636 6.1245 31.005 6.1335 31.401L6.2325 34.605C6.23971 34.8407 6.30471 35.0711 6.4218 35.2759C6.53889 35.4806 6.70447 35.6534 6.904 35.7792C7.10353 35.905 7.3309 35.9798 7.56612 35.9971C7.80133 36.0144 8.03721 35.9737 8.253 35.8785L11.826 34.3035C12.1275 34.1685 12.4695 34.146 12.789 34.2315C14.4315 34.6815 16.1775 34.9245 18 34.9245C28.1385 34.9245 36 27.495 36 17.4645C36 7.434 28.1385 0 18 0Z" fill="url(#paint0_radial_2_29)"/>
<path d="M7.1912 22.5675L12.4787 14.1795C12.6776 13.8637 12.9398 13.5926 13.2488 13.3832C13.5578 13.1739 13.9068 13.0309 14.2739 12.9632C14.6409 12.8955 15.018 12.9047 15.3813 12.9901C15.7446 13.0756 16.0863 13.2354 16.3847 13.4595L20.5922 16.614C20.78 16.7546 21.0086 16.8303 21.2432 16.8295C21.4778 16.8286 21.7058 16.7514 21.8927 16.6095L27.5717 12.2985C28.3277 11.7225 29.3177 12.6315 28.8137 13.437L23.5217 21.8205C23.3228 22.1363 23.0606 22.4075 22.7516 22.6168C22.4426 22.8262 22.0936 22.9692 21.7265 23.0368C21.3595 23.1045 20.9824 23.0953 20.6191 23.0099C20.2558 22.9245 19.9141 22.7646 19.6157 22.5405L15.4082 19.386C15.2204 19.2454 14.9918 19.1698 14.7572 19.1706C14.5226 19.1714 14.2946 19.2486 14.1077 19.3905L8.4287 23.7015C7.6727 24.2775 6.6827 23.373 7.1912 22.5675Z" fill="white"/>
</g>
<defs>
<radialGradient id="paint0_radial_2_29" cx="0" cy="0" r="1" gradientUnits="userSpaceOnUse" gradientTransform="translate(6.03 36) scale(39.6 39.6)">
<stop stop-color="#0099FF"/>
<stop offset="0.6" stop-color="#A033FF"/>
<stop offset="0.9" stop-color="#FF5280"/>
<stop offset="1" stop-color="#FF7061"/>
</radialGradient>
<clipPath id="clip0_2_29">
<rect width="36" height="36" fill="white"/>
</clipPath>
</defs>
</svg>
