<svg width="36" height="36" viewBox="0 0 36 36" fill="none" xmlns="http://www.w3.org/2000/svg">
<path d="M13.3154 3.28805C13.5967 2.56292 13.9836 1.89535 14.558 1.35438C16.8558 -0.844014 20.6543 -0.291538 22.2135 2.47084C23.3858 4.56565 24.6285 6.61441 25.836 8.6862C27.8525 12.1277 29.8924 15.5691 31.8853 19.0221C33.5618 21.9111 31.7447 25.5597 28.4152 26.0547C26.3753 26.3539 24.4644 25.4331 23.4093 23.6376C21.639 20.6105 19.8571 17.5834 18.0868 14.5678C18.0516 14.4987 18.0047 14.4412 17.9579 14.3836C17.7703 14.234 17.6882 14.0153 17.571 13.8196C16.7855 12.4615 15.9766 11.1148 15.1911 9.76813C14.687 8.89338 14.1594 8.03013 13.6553 7.15538C13.1981 6.37271 12.9871 5.52097 13.0105 4.6232C13.0457 4.1628 13.1043 3.7024 13.3154 3.28805Z" fill="#3C8BD9"/>
<path d="M13.3141 3.28857C13.2086 3.70293 13.1148 4.11729 13.0913 4.55466C13.0562 5.5215 13.3023 6.41927 13.7947 7.2595C15.0843 9.43487 16.3739 11.6218 17.6518 13.8086C17.769 14.0043 17.8628 14.2 17.98 14.3841C17.2766 15.5812 16.5732 16.7667 15.8581 17.9637C14.8733 19.6327 13.8885 21.3131 12.892 22.982C12.8451 22.982 12.8334 22.959 12.8217 22.9245C12.81 22.8324 12.8451 22.7518 12.8686 22.6598C13.3492 20.9333 12.9506 19.4025 11.7431 18.0903C11.0045 17.2961 10.0667 16.8473 8.98811 16.6976C7.58129 16.502 6.3386 16.8588 5.22487 17.722C5.02557 17.8716 4.89661 18.0903 4.66214 18.2054C4.61525 18.2054 4.5918 18.1824 4.58008 18.1479C5.14281 17.1926 5.69381 16.2372 6.25654 15.2819C8.57778 11.3225 10.899 7.36309 13.232 3.41518C13.2555 3.36914 13.2906 3.33461 13.3141 3.28857Z" fill="#FABC04"/>
<path d="M4.62719 18.1816C4.84993 17.9859 5.06095 17.7787 5.29542 17.5946C8.14423 15.3847 12.4233 16.9845 13.0446 20.4836C13.197 21.3238 13.115 22.1295 12.8571 22.9352C12.8453 23.0042 12.8336 23.0618 12.8102 23.1308C12.7047 23.315 12.6109 23.5107 12.4936 23.6948C11.4502 25.3868 9.91447 26.227 7.89804 26.1004C5.58851 25.9393 3.77137 24.2358 3.45484 21.9798C3.30243 20.8864 3.52518 19.862 4.09963 18.9182C4.21686 18.711 4.35755 18.5269 4.4865 18.3197C4.54512 18.2737 4.52167 18.1816 4.62719 18.1816Z" fill="#34A852"/>
<path d="M4.62883 18.1823C4.58193 18.2283 4.58193 18.3089 4.49987 18.3204C4.48815 18.2398 4.53504 18.1938 4.58193 18.1362L4.62883 18.1823Z" fill="#FABC04"/>
<path d="M12.8114 23.1307C12.7645 23.0502 12.8114 22.9926 12.8583 22.9351C12.87 22.9466 12.8935 22.9696 12.9052 22.9811L12.8114 23.1307Z" fill="#E1C025"/>
<path d="M5.6709 29.9692C4.34615 29.9692 3.24414 31.0166 3.24414 32.3058C3.24414 33.5949 4.34615 34.6308 5.6709 34.6308C6.38603 34.6308 6.91359 34.4006 7.33563 33.9747C7.7694 33.5488 7.89836 32.9618 7.89836 32.4899C7.89836 32.3403 7.88664 32.2022 7.86319 32.0871H5.6709V32.7201H7.23012C7.18323 33.0769 7.06599 33.3416 6.87842 33.5258C6.65567 33.7445 6.29224 33.9977 5.6709 33.9977C4.70958 33.9977 3.95927 33.2381 3.95927 32.3058C3.95927 31.3735 4.70958 30.6138 5.6709 30.6138C6.18673 30.6138 6.57361 30.8095 6.84325 31.0742L7.30046 30.6253C6.91359 30.257 6.39776 29.9692 5.6709 29.9692ZM9.64516 31.6382C8.81279 31.6382 8.12111 32.2712 8.12111 33.1575C8.12111 34.0322 8.80107 34.6768 9.64516 34.6768C10.4892 34.6768 11.1692 34.0322 11.1692 33.1575C11.1692 32.2827 10.4775 31.6382 9.64516 31.6382ZM9.64516 34.0783C9.18794 34.0783 8.78935 33.6985 8.78935 33.1575C8.78935 32.6165 9.18794 32.2367 9.64516 32.2367C10.1024 32.2367 10.501 32.605 10.501 33.1575C10.501 33.6985 10.1024 34.0783 9.64516 34.0783ZM12.9512 31.6382C12.1071 31.6382 11.4271 32.2712 11.4271 33.1575C11.4271 34.0322 12.1071 34.6768 12.9512 34.6768C13.7835 34.6768 14.4752 34.0322 14.4752 33.1575C14.4752 32.2827 13.7953 31.6382 12.9512 31.6382ZM12.9512 34.0783C12.494 34.0783 12.0954 33.6985 12.0954 33.1575C12.0954 32.6165 12.494 32.2367 12.9512 32.2367C13.4084 32.2367 13.807 32.605 13.807 33.1575C13.807 33.6985 13.4201 34.0783 12.9512 34.0783ZM16.2455 31.6382C15.4835 31.6382 14.7918 32.2942 14.7918 33.146C14.7918 33.9862 15.4835 34.6423 16.2455 34.6423C16.6089 34.6423 16.8903 34.4811 17.0427 34.297H17.0661V34.5157C17.0661 35.0912 16.7613 35.4019 16.2572 35.4019C15.8469 35.4019 15.6007 35.1142 15.4952 34.8725L14.909 35.1142C15.0731 35.517 15.5186 36.0004 16.2572 36.0004C17.0427 36.0004 17.6992 35.54 17.6992 34.4351V31.7418H17.0661V31.9835H17.0427C16.8903 31.7993 16.6089 31.6382 16.2455 31.6382ZM16.3041 34.0553C15.8469 34.0553 15.46 33.6754 15.46 33.146C15.46 32.6165 15.8469 32.2252 16.3041 32.2252C16.7613 32.2252 17.113 32.6165 17.113 33.146C17.113 33.6754 16.7613 34.0553 16.3041 34.0553ZM18.1916 30.1534H18.8598V34.5962H18.1916V30.1534ZM20.6535 31.6382C19.8563 31.6382 19.1881 32.2482 19.1881 33.1575C19.1881 34.0092 19.8446 34.6768 20.7238 34.6768C21.439 34.6768 21.8493 34.2509 22.0134 34.0092L21.4859 33.6639C21.31 33.9171 21.0638 34.0783 20.7238 34.0783C20.3721 34.0783 20.1259 33.9287 19.9735 33.6179L22.0486 32.7777L21.9783 32.605C21.8493 32.2712 21.4507 31.6382 20.6535 31.6382ZM19.8563 33.1114C19.8329 32.5244 20.3252 32.2252 20.6652 32.2252C20.9349 32.2252 21.1693 32.3518 21.2397 32.5475L19.8563 33.1114Z" fill="white"/>
<path d="M23.2217 34.5263L24.7692 30.4863H25.3671L26.9146 34.5263H26.3284L25.9298 33.4329H24.2065L23.8079 34.5263H23.2217ZM24.3823 32.9495H25.754L25.0857 31.1309H25.0623L24.3823 32.9495Z" fill="white"/>
<path d="M27.4523 34.1925C27.1944 33.9048 27.0654 33.5595 27.0654 33.1451C27.0654 32.7423 27.1944 32.397 27.4523 32.0977C27.7219 31.81 28.0268 31.6719 28.4019 31.6719C28.6129 31.6719 28.8005 31.7179 28.9646 31.7985C29.1405 31.8905 29.2694 31.9941 29.3632 32.1438H29.3867L29.3632 31.7639V30.4863H29.8908V34.5263H29.3867V34.1465H29.3632C29.2694 34.2846 29.1405 34.3997 28.9646 34.4918C28.7888 34.5839 28.6012 34.6184 28.4019 34.6184C28.0268 34.6184 27.7102 34.4803 27.4523 34.1925ZM29.117 33.8702C29.2929 33.6861 29.375 33.4444 29.375 33.1451C29.375 32.8574 29.2929 32.6157 29.117 32.4315C28.9529 32.2473 28.7419 32.1553 28.484 32.1553C28.2261 32.1553 28.015 32.2473 27.8509 32.4315C27.6751 32.6157 27.593 32.8574 27.593 33.1451C27.593 33.4329 27.6751 33.6746 27.8509 33.8587C28.0268 34.0429 28.2378 34.135 28.484 34.135C28.7419 34.1465 28.9529 34.0544 29.117 33.8702Z" fill="white"/>
<path d="M32.3309 34.3647C32.1199 34.5258 31.8502 34.6179 31.522 34.6179C31.2406 34.6179 30.9944 34.5489 30.7717 34.3992C30.5606 34.2496 30.4082 34.0654 30.3145 33.8237L30.7834 33.6281C30.8537 33.7892 30.9475 33.9273 31.0882 34.0194C31.2172 34.1115 31.3696 34.1575 31.522 34.1575C31.6861 34.1575 31.8268 34.123 31.944 34.0539C32.0613 33.9849 32.1081 33.8928 32.1081 33.8007C32.1081 33.6281 31.9675 33.49 31.6978 33.4094L31.2172 33.2943C30.6662 33.1562 30.3965 32.9029 30.3965 32.5116C30.3965 32.2584 30.502 32.0627 30.7131 31.9016C30.9241 31.752 31.1937 31.6714 31.5102 31.6714C31.7564 31.6714 31.9792 31.7289 32.1902 31.844C32.3895 31.9591 32.5302 32.1203 32.6123 32.3159L32.1433 32.5116C32.0847 32.3965 32.0026 32.3044 31.8854 32.2354C31.7682 32.1663 31.6275 32.1318 31.4751 32.1318C31.3344 32.1318 31.2172 32.1663 31.0999 32.2354C30.9944 32.3044 30.9358 32.385 30.9358 32.4886C30.9358 32.6497 31.0882 32.7648 31.393 32.8224L31.8151 32.926C32.3778 33.0641 32.6474 33.3403 32.6474 33.7547C32.6591 33.9964 32.5419 34.2036 32.3309 34.3647Z" fill="white"/>
</svg>
