<svg width="36" height="36" viewBox="0 0 36 36" fill="none" xmlns="http://www.w3.org/2000/svg">
<g clip-path="url(#clip0_1_1142)">
<path d="M27.5625 0H8.4375C3.7776 0 0 3.77758 0 8.43746V27.5624C0 32.2222 3.7776 35.9998 8.4375 35.9998H27.5625C32.2224 35.9998 36 32.2222 36 27.5624V8.43746C36 3.77758 32.2224 0 27.5625 0Z" fill="url(#paint0_radial_1_1142)"/>
<path d="M27.5625 0H8.4375C3.7776 0 0 3.77758 0 8.43746V27.5624C0 32.2222 3.7776 35.9998 8.4375 35.9998H27.5625C32.2224 35.9998 36 32.2222 36 27.5624V8.43746C36 3.77758 32.2224 0 27.5625 0Z" fill="url(#paint1_radial_1_1142)"/>
<path d="M18.0013 3.9375C14.1822 3.9375 13.7028 3.95423 12.2029 4.02244C10.7058 4.09106 9.68386 4.32801 8.78977 4.67578C7.86473 5.03493 7.08019 5.51545 6.29859 6.29732C5.5163 7.07905 5.03578 7.86359 4.6755 8.7882C4.32675 9.68257 4.08952 10.7049 4.02216 12.2013C3.95508 13.7013 3.9375 14.1809 3.9375 18.0001C3.9375 21.8193 3.95438 22.2971 4.02244 23.797C4.09134 25.2941 4.3283 26.316 4.67578 27.2101C5.03522 28.1351 5.51573 28.9197 6.29761 29.7013C7.07906 30.4836 7.86361 30.9652 8.78794 31.3244C9.68273 31.6721 10.7048 31.9091 12.2016 31.9777C13.7017 32.0459 14.1806 32.0626 17.9996 32.0626C21.8191 32.0626 22.2969 32.0459 23.7968 31.9777C25.2939 31.9091 26.317 31.6721 27.2118 31.3244C28.1364 30.9652 28.9198 30.4836 29.7011 29.7013C30.4834 28.9197 30.9638 28.1351 31.3242 27.2105C31.6699 26.316 31.9072 25.2938 31.9776 23.7973C32.0449 22.2974 32.0625 21.8193 32.0625 18.0001C32.0625 14.1809 32.0449 13.7016 31.9776 12.2016C31.9072 10.7045 31.6699 9.68271 31.3242 8.78862C30.9638 7.86359 30.4834 7.07905 29.7011 6.29732C28.919 5.51516 28.1367 5.03465 27.2109 4.67592C26.3145 4.32801 25.292 4.09092 23.7949 4.02244C22.2948 3.95423 21.8173 3.9375 17.9969 3.9375H18.0013ZM16.7397 6.47169C17.1142 6.47113 17.532 6.47169 18.0013 6.47169C21.7561 6.47169 22.201 6.48519 23.6838 6.55255C25.0549 6.61527 25.7991 6.84435 26.2948 7.03686C26.9511 7.29167 27.4189 7.5964 27.9108 8.08873C28.403 8.58091 28.7076 9.04962 28.9631 9.70591C29.1556 10.2009 29.385 10.9451 29.4474 12.3162C29.5148 13.7986 29.5294 14.2439 29.5294 17.9968C29.5294 21.7498 29.5148 22.1952 29.4474 23.6775C29.3847 25.0486 29.1556 25.7928 28.9631 26.2879C28.7083 26.9442 28.403 27.4115 27.9108 27.9034C27.4186 28.3956 26.9513 28.7002 26.2948 28.9551C25.7996 29.1485 25.0549 29.377 23.6838 29.4397C22.2013 29.5071 21.7561 29.5217 18.0013 29.5217C14.2463 29.5217 13.8012 29.5071 12.3189 29.4397C10.9478 29.3764 10.2036 29.1474 9.70748 28.9548C9.05133 28.6999 8.58248 28.3953 8.0903 27.9031C7.59811 27.4109 7.29352 26.9434 7.038 26.2868C6.84548 25.7916 6.61613 25.0475 6.55369 23.6764C6.48633 22.1939 6.47283 21.7487 6.47283 17.9933C6.47283 14.2381 6.48633 13.7951 6.55369 12.3127C6.61641 10.9416 6.84548 10.1974 7.038 9.70169C7.29295 9.0454 7.59811 8.5767 8.09044 8.08451C8.58263 7.59233 9.05133 7.28759 9.70762 7.03222C10.2033 6.83886 10.9478 6.61035 12.3189 6.54735C13.6162 6.48871 14.1189 6.47113 16.7397 6.46817V6.47169ZM25.5078 8.80662C24.5762 8.80662 23.8203 9.56177 23.8203 10.4935C23.8203 11.4252 24.5762 12.181 25.5078 12.181C26.4395 12.181 27.1953 11.4252 27.1953 10.4935C27.1953 9.56191 26.4395 8.80605 25.5078 8.80605V8.80662ZM18.0013 10.7783C14.0131 10.7783 10.7796 14.0118 10.7796 18.0001C10.7796 21.9883 14.0131 25.2203 18.0013 25.2203C21.9895 25.2203 25.2219 21.9883 25.2219 18.0001C25.2219 14.012 21.9893 10.7783 18.001 10.7783H18.0013ZM18.0013 13.3125C20.59 13.3125 22.6889 15.411 22.6889 18.0001C22.6889 20.5888 20.59 22.6876 18.0013 22.6876C15.4124 22.6876 13.3138 20.5888 13.3138 18.0001C13.3138 15.411 15.4124 13.3125 18.0013 13.3125Z" fill="white"/>
</g>
<defs>
<radialGradient id="paint0_radial_1_1142" cx="0" cy="0" r="1" gradientUnits="userSpaceOnUse" gradientTransform="translate(9.5625 38.7725) rotate(-90) scale(35.6785 33.184)">
<stop stop-color="#FFDD55"/>
<stop offset="0.1" stop-color="#FFDD55"/>
<stop offset="0.5" stop-color="#FF543E"/>
<stop offset="1" stop-color="#C837AB"/>
</radialGradient>
<radialGradient id="paint1_radial_1_1142" cx="0" cy="0" r="1" gradientUnits="userSpaceOnUse" gradientTransform="translate(-6.03014 2.59325) rotate(78.6809) scale(15.9485 65.7405)">
<stop stop-color="#3771C8"/>
<stop offset="0.128" stop-color="#3771C8"/>
<stop offset="1" stop-color="#6600FF" stop-opacity="0"/>
</radialGradient>
<clipPath id="clip0_1_1142">
<rect width="36" height="35.9998" fill="white"/>
</clipPath>
</defs>
</svg>
