<svg width="36" height="36" viewBox="0 0 36 36" fill="none" xmlns="http://www.w3.org/2000/svg">
<path d="M21.5366 25.26L17.3579 28.064C16.9923 28.3109 16.5201 28.3351 16.1311 28.1269C15.7421 27.9187 15.5004 27.5123 15.5032 27.0711V22.4342C15.4989 22.3224 15.5542 22.2167 15.6483 22.1562C15.7424 22.0957 15.8614 22.0894 15.9614 22.1396L21.493 24.6927C21.6056 24.7372 21.6829 24.842 21.6922 24.9627C21.7016 25.0834 21.6411 25.1989 21.5366 25.26Z" fill="#304D8B"/>
<path d="M15.6875 22.7812L1.75477 14.4674C1.04625 14.0474 0.647601 13.253 0.734433 12.4339C0.821264 11.6149 1.37764 10.9217 2.15847 10.6597L33.1441 0.0874602C33.8437 -0.134482 34.605 0.143331 34.9972 0.763715C35.3895 1.38409 35.314 2.19096 34.8134 2.72779L15.6875 22.7812Z" fill="url(#paint0_linear_2_7)"/>
<path d="M15.6415 22.912C15.6415 22.912 22.4824 30.9529 26.2356 35.2844C26.7782 35.9016 27.6302 36.1469 28.4178 35.9124C29.2055 35.678 29.7847 35.0068 29.9015 34.1934L35.2476 2.02941C35.4311 1.31336 35.1085 0.56362 34.4623 0.204626C33.8162 -0.154362 33.0092 -0.0322034 32.4982 0.501949L15.7179 20.5445C15.079 21.1929 15.0458 22.2236 15.6415 22.912Z" fill="url(#paint1_linear_2_7)"/>
<defs>
<linearGradient id="paint0_linear_2_7" x1="-4.81069" y1="0.267166" x2="0.0995983" y2="25.2471" gradientUnits="userSpaceOnUse">
<stop stop-color="#6084D7"/>
<stop offset="0.22" stop-color="#5D81D3"/>
<stop offset="0.46" stop-color="#5578C6"/>
<stop offset="0.7" stop-color="#4868B1"/>
<stop offset="0.94" stop-color="#355393"/>
<stop offset="1" stop-color="#304D8B"/>
</linearGradient>
<linearGradient id="paint1_linear_2_7" x1="13.2772" y1="-8.76364" x2="0.214509" y2="36.9878" gradientUnits="userSpaceOnUse">
<stop stop-color="#6084D7"/>
<stop offset="0.3" stop-color="#5E82D4"/>
<stop offset="0.5" stop-color="#587BCB"/>
<stop offset="0.69" stop-color="#4F70BB"/>
<stop offset="0.85" stop-color="#4160A5"/>
<stop offset="1" stop-color="#304D8B"/>
</linearGradient>
</defs>
</svg>
