<svg width="36" height="36" viewBox="0 0 36 36" fill="none" xmlns="http://www.w3.org/2000/svg">
<path d="M35.9998 17.9999C35.9998 27.9409 27.9409 35.9998 17.9999 35.9998C8.05888 35.9998 0 27.9409 0 17.9999C0 8.05873 8.05888 0 17.9999 0C27.9409 0 35.9998 8.05873 35.9998 17.9999Z" fill="white"/>
<path d="M17.9999 0C8.05888 0 0 8.05873 0 17.9999C0 25.6256 4.74444 32.1445 11.4403 34.7672C11.283 33.343 11.1407 31.1528 11.5027 29.5981C11.8298 28.1933 13.6134 20.6509 13.6134 20.6509C13.6134 20.6509 13.075 19.5726 13.075 17.9785C13.075 15.4756 14.5257 13.6071 16.332 13.6071C17.8677 13.6071 18.6094 14.76 18.6094 16.1426C18.6094 17.687 17.6261 19.996 17.1187 22.1357C16.6947 23.9273 18.0171 25.3883 19.7842 25.3883C22.9834 25.3883 25.4426 22.015 25.4426 17.1457C25.4426 12.836 22.3458 9.8227 17.9239 9.8227C12.8023 9.8227 9.79611 13.6642 9.79611 17.6341C9.79611 19.1812 10.3921 20.8401 11.1357 21.7419C11.2828 21.9202 11.3044 22.0763 11.2605 22.2582C11.1239 22.8267 10.8203 24.0493 10.7606 24.2996C10.6821 24.629 10.4998 24.699 10.1586 24.5402C7.91057 23.4938 6.50501 20.207 6.50501 17.567C6.50501 11.889 10.6305 6.67442 18.3983 6.67442C24.6424 6.67442 29.4949 11.1239 29.4949 17.0704C29.4949 23.2738 25.5835 28.2663 20.1546 28.2663C18.3305 28.2663 16.6159 27.3187 16.0289 26.1994C16.0289 26.1994 15.1264 29.6361 14.9075 30.4784C14.5012 32.0418 13.4041 34.0016 12.6704 35.1972C14.3545 35.7186 16.1443 35.9998 17.9999 35.9998C27.9409 35.9998 35.9998 27.9409 35.9998 17.9999C35.9998 8.05873 27.9409 0 17.9999 0Z" fill="#E60023"/>
</svg>
