<svg width="36" height="36" viewBox="0 0 36 36" fill="none" xmlns="http://www.w3.org/2000/svg">
<g clip-path="url(#clip0_1_1096)">
<path fill-rule="evenodd" clip-rule="evenodd" d="M13.6967 33.806C12.4828 32.4111 2.7891 22.6283 1.77155 21.7044C1.20774 21.0893 0.912537 20.2693 0.952869 19.4303C0.993201 18.5913 1.36565 17.8043 1.98577 17.2479C3.19971 16.0884 15.3925 3.44326 17.8026 0.943222C18.0738 0.659396 18.4486 0.502027 18.838 0.508434H30.9417C31.2347 0.508434 31.512 0.496722 31.7758 0.485579C32.9423 0.436309 33.8461 0.398137 34.6906 1.43236C35.5588 2.49577 35.5357 3.38085 35.5057 4.53623C35.5 4.75866 35.4939 4.9911 35.4939 5.23675V16.5957C35.5 16.9819 35.3519 17.3544 35.0833 17.6283L18.8023 34.2589C17.2335 35.4436 15.0391 35.2489 13.6967 33.806ZM29.9063 3.67885C28.6936 3.67885 27.7104 4.67649 27.7104 5.90715C27.7104 7.13779 28.6936 8.13544 29.9063 8.13544C31.1189 8.13544 32.1021 7.13779 32.1021 5.90715C32.1021 4.67649 31.1189 3.67885 29.9063 3.67885Z" fill="url(#paint0_linear_1_1096)"/>
</g>
<defs>
<linearGradient id="paint0_linear_1_1096" x1="-13.8741" y1="25.4951" x2="30.8093" y2="74.2458" gradientUnits="userSpaceOnUse">
<stop stop-color="#FF4C58"/>
<stop offset="0.49" stop-color="#FF294E"/>
<stop offset="0.53" stop-color="#FF264D"/>
</linearGradient>
<clipPath id="clip0_1_1096">
<rect width="36" height="36" fill="white"/>
</clipPath>
</defs>
</svg>
