<svg width="36" height="36" viewBox="0 0 36 36" fill="none" xmlns="http://www.w3.org/2000/svg">
<path fill-rule="evenodd" clip-rule="evenodd" d="M27.136 8.49145H28.8178C30.6677 8.49145 32.1813 10.0017 32.1813 11.8475V31.9835C32.1813 33.9971 30.4995 35.5073 28.6496 35.5073H7.62744C5.6093 35.5073 4.0957 33.8293 4.0957 31.9835V12.0153C4.0957 10.0017 5.77748 8.49145 7.62744 8.49145H9.3092C9.98192 4.29643 13.6819 0.94043 18.2225 0.94043C22.7633 0.94043 26.4633 4.12864 27.136 8.49145ZM25.1179 8.49153C24.4451 5.30332 21.5861 2.78631 18.2225 2.78631C14.8591 2.78631 12 5.13552 11.3273 8.49153H25.1179Z" fill="url(#paint0_linear_1_1088)"/>
<defs>
<linearGradient id="paint0_linear_1_1088" x1="-7.4953" y1="42.6402" x2="32.1813" y2="42.6402" gradientUnits="userSpaceOnUse">
<stop stop-color="#FF4659"/>
<stop offset="1" stop-color="#FF264D"/>
</linearGradient>
</defs>
</svg>
