<svg width="36" height="36" viewBox="0 0 36 36" fill="none" xmlns="http://www.w3.org/2000/svg">
<path d="M10.078 30.3188L10.6198 30.6383C12.8949 31.9826 15.5036 32.6937 18.1639 32.6949H18.1695C26.3392 32.6949 32.988 26.077 32.9914 17.943C32.9928 14.0014 31.4525 10.2948 28.6541 7.50655C27.2815 6.13148 25.6486 5.0411 23.8499 4.29854C22.0512 3.55597 20.1225 3.17597 18.1753 3.18053C9.99928 3.18053 3.35023 9.7977 3.34732 17.9312C3.3433 20.7086 4.12889 23.4303 5.61328 25.7819L5.96593 26.3398L4.4683 31.783L10.078 30.3188ZM0.186523 36L2.71667 26.8031C1.15626 24.1116 0.335341 21.0582 0.336311 17.93C0.340431 8.14383 8.33974 0.182373 18.1697 0.182373C22.9399 0.184786 27.4172 2.0329 30.7845 5.3877C34.1518 8.74249 36.0045 13.2017 36.0028 17.9442C35.9985 27.7297 27.998 35.6926 18.1695 35.6926H18.1617C15.1774 35.6914 12.2449 34.946 9.64008 33.532L0.186523 36Z" fill="#B3B3B3"/>
<path d="M0.00292969 35.8176L2.53307 26.6207C0.969981 23.9227 0.148941 20.8622 0.152717 17.7476C0.156837 7.96145 8.15615 0 17.9861 0C22.7563 0.002413 27.2336 1.85053 30.6009 5.20532C33.9682 8.56012 35.8209 13.0193 35.8193 17.7619C35.8149 27.5473 27.8144 35.5102 17.9859 35.5102H17.9781C14.9938 35.509 12.0613 34.7636 9.45648 33.3496L0.00292969 35.8176Z" fill="white"/>
<path d="M17.9923 2.99797C9.81627 2.99797 3.16723 9.61514 3.16432 17.7486C3.1603 20.526 3.94589 23.2478 5.43028 25.5993L5.78293 26.1575L4.2853 31.6007L9.89529 30.1363L10.437 30.4557C12.7122 31.8 15.3208 32.5109 17.9811 32.5123H17.9867C26.1564 32.5123 32.8054 25.8944 32.8086 17.7605C32.8148 15.8218 32.4346 13.9011 31.6901 12.1097C30.9456 10.3182 29.8516 8.69161 28.4713 7.32399C27.0987 5.94889 25.4658 4.8585 23.6671 4.11593C21.8683 3.37337 19.9395 2.99338 17.9923 2.99797Z" fill="url(#paint0_linear_2_38)"/>
<path fill-rule="evenodd" clip-rule="evenodd" d="M13.5289 10.3279C13.1949 9.58927 12.8435 9.57431 12.5262 9.56152L11.6721 9.55115C11.375 9.55115 10.8922 9.66215 10.484 10.1061C10.0758 10.5501 8.92432 11.6232 8.92432 13.8057C8.92432 15.9883 10.5211 18.0973 10.7436 18.3936C10.9661 18.6899 13.8261 23.3115 18.3553 25.0897C22.1192 26.5674 22.8851 26.2735 23.7023 26.1996C24.5196 26.1258 26.3386 25.1266 26.7097 24.0907C27.0808 23.0548 27.081 22.1673 26.9698 21.9817C26.8585 21.7962 26.5614 21.6859 26.1154 21.4639C25.6695 21.2419 23.4791 20.1688 23.0707 20.0207C22.6623 19.8725 22.3654 19.7989 22.068 20.2429C21.7706 20.6869 20.9177 21.6856 20.6576 21.9817C20.3976 22.2778 20.138 22.315 19.692 22.0932C19.2461 21.8714 17.8112 21.4028 16.1088 19.8916C14.7842 18.7157 13.8901 17.2636 13.6298 16.8198C13.3695 16.3761 13.6021 16.1357 13.8256 15.9147C14.0256 15.7159 14.2711 15.3966 14.4943 15.1377C14.7175 14.8788 14.791 14.6937 14.9393 14.3981C15.0876 14.1025 15.0137 13.8429 14.9022 13.6212C14.7907 13.3994 13.925 11.2053 13.5289 10.3279Z" fill="white"/>
<defs>
<linearGradient id="paint0_linear_2_38" x1="17.6847" y1="4.76911" x2="17.8336" y2="29.991" gradientUnits="userSpaceOnUse">
<stop stop-color="#57D163"/>
<stop offset="1" stop-color="#23B33A"/>
</linearGradient>
</defs>
</svg>
