<svg width="420" height="41" viewBox="0 0 420 41" fill="none" xmlns="http://www.w3.org/2000/svg">
<path d="M53.8165 17.7803C53.6688 17.7803 53.5195 17.7612 53.3702 17.7213C52.452 17.4752 51.9072 16.5317 52.153 15.6139L53.9927 8.74858H16.2588C15.3084 8.74858 14.5378 7.97804 14.5378 7.02767C14.5378 6.07731 15.3084 5.30676 16.2588 5.30676H56.2356C56.7706 5.30676 57.2754 5.55575 57.6009 5.98007C57.9268 6.4044 58.0366 6.95607 57.8979 7.47316L55.4776 16.5049C55.2714 17.2734 54.5761 17.7803 53.8165 17.7803Z" fill="#A3A3A3"/>
<path d="M19.1135 5.30627H16.4565L18.5537 8.7481H21.1912L19.1135 5.30627Z" fill="#A3A3A3"/>
<path d="M36.7299 37.8608C36.7299 39.0423 35.7722 40 34.5907 40C33.4093 40 32.4516 39.0423 32.4516 37.8608C32.4516 36.6794 33.4093 35.7217 34.5907 35.7217C35.7722 35.7217 36.7299 36.6798 36.7299 37.8608Z" fill="#A3A3A3"/>
<path d="M51.4565 40C52.6379 40 53.5956 39.0422 53.5956 37.8608C53.5956 36.6794 52.6379 35.7217 51.4565 35.7217C50.2751 35.7217 49.3173 36.6794 49.3173 37.8608C49.3173 39.0422 50.2751 40 51.4565 40Z" fill="#A3A3A3"/>
<path d="M53.1412 34.3234H31.6981C30.7478 34.3234 29.9772 33.5529 29.9772 32.6025C29.9772 31.6521 30.7478 30.8816 31.6981 30.8816H51.8173L54.1924 21.9308C54.4365 21.0122 55.3796 20.4658 56.297 20.7091C57.2156 20.9528 57.7628 21.895 57.5187 22.814L54.8039 33.0443C54.6041 33.7982 53.9215 34.3234 53.1412 34.3234Z" fill="#A3A3A3"/>
<path d="M53.2128 25.6233H56.7734L57.5496 22.6749H53.9951L53.2128 25.6233Z" fill="#A3A3A3"/>
<path d="M55.856 24.0932H25.5224C24.9194 24.0932 24.3605 23.7779 24.0488 23.2616L12.0842 3.44182H1.72091C0.770547 3.44182 0 2.67128 0 1.72091C0 0.770543 0.770547 0 1.72091 0H13.0553C13.6583 0 14.2168 0.3153 14.5285 0.831573L26.4935 20.6513H55.8556C56.8059 20.6513 57.5765 21.4219 57.5765 22.3723C57.5769 23.3226 56.8063 24.0932 55.856 24.0932Z" fill="#A3A3A3"/>
<path d="M78.0262 32.7106C76.2775 32.7106 74.769 32.3246 73.5007 31.5527C72.2404 30.7728 71.2676 29.6858 70.5822 28.2915C69.9048 26.8894 69.5661 25.2588 69.5661 23.3997C69.5661 21.5407 69.9048 19.9023 70.5822 18.4844C71.2676 17.0586 72.2207 15.9479 73.4417 15.1523C74.6705 14.3488 76.1042 13.9471 77.7426 13.9471C78.6879 13.9471 79.6214 14.1046 80.543 14.4197C81.4646 14.7348 82.3035 15.2468 83.0598 15.9558C83.816 16.6568 84.4186 17.5864 84.8676 18.7443C85.3166 19.9023 85.5411 21.328 85.5411 23.0216V24.2032H71.5511V21.7928H82.7053C82.7053 20.7688 82.5005 19.855 82.0909 19.0515C81.6891 18.248 81.1141 17.6139 80.3658 17.1492C79.6253 16.6844 78.7509 16.452 77.7426 16.452C76.6319 16.452 75.6709 16.7277 74.8596 17.2791C74.0561 17.8227 73.4377 18.5316 73.0045 19.406C72.5712 20.2804 72.3546 21.2178 72.3546 22.2182V23.8251C72.3546 25.1958 72.5909 26.3576 73.0636 27.3108C73.5441 28.2561 74.2097 28.9768 75.0604 29.4731C75.9112 29.9615 76.8998 30.2057 78.0262 30.2057C78.7588 30.2057 79.4205 30.1033 80.0113 29.8985C80.6099 29.6858 81.1259 29.3707 81.5592 28.9532C81.9924 28.5278 82.3272 28 82.5635 27.3699L85.2575 28.1261C84.9739 29.0398 84.4974 29.8433 83.8278 30.5365C83.1582 31.2218 82.3311 31.7575 81.3465 32.1435C80.3618 32.5216 79.2551 32.7106 78.0262 32.7106ZM100.181 20.6585V23.258H89.5939V20.6585H100.181ZM112.461 32.7106C110.759 32.7106 109.294 32.3089 108.065 31.5054C106.836 30.7019 105.891 29.5952 105.229 28.1852C104.568 26.7751 104.237 25.1642 104.237 23.3525C104.237 21.5092 104.575 19.8826 105.253 18.4725C105.938 17.0546 106.891 15.9479 108.112 15.1523C109.341 14.3488 110.775 13.9471 112.413 13.9471C113.689 13.9471 114.839 14.1834 115.863 14.656C116.888 15.1287 117.726 15.7903 118.38 16.6411C119.034 17.4918 119.44 18.4844 119.597 19.6187H116.809C116.596 18.7916 116.123 18.059 115.391 17.4209C114.666 16.775 113.689 16.452 112.461 16.452C111.373 16.452 110.42 16.7356 109.601 17.3028C108.79 17.8621 108.156 18.6537 107.699 19.6778C107.25 20.6939 107.025 21.8873 107.025 23.258C107.025 24.6601 107.246 25.8811 107.687 26.9209C108.136 27.9607 108.766 28.7681 109.577 29.3431C110.397 29.9182 111.358 30.2057 112.461 30.2057C113.185 30.2057 113.843 30.0796 114.434 29.8276C115.025 29.5755 115.525 29.2131 115.934 28.7405C116.344 28.2679 116.635 27.7007 116.809 27.039H119.597C119.44 28.1103 119.05 29.0753 118.428 29.9339C117.813 30.7846 116.998 31.4621 115.982 31.9662C114.973 32.4625 113.8 32.7106 112.461 32.7106ZM131.047 32.7106C129.408 32.7106 127.971 32.3207 126.734 31.5409C125.505 30.761 124.544 29.67 123.851 28.2679C123.166 26.8657 122.823 25.2273 122.823 23.3525C122.823 21.4619 123.166 19.8117 123.851 18.4016C124.544 16.9916 125.505 15.8967 126.734 15.1168C127.971 14.337 129.408 13.9471 131.047 13.9471C132.685 13.9471 134.119 14.337 135.348 15.1168C136.585 15.8967 137.546 16.9916 138.231 18.4016C138.924 19.8117 139.271 21.4619 139.271 23.3525C139.271 25.2273 138.924 26.8657 138.231 28.2679C137.546 29.67 136.585 30.761 135.348 31.5409C134.119 32.3207 132.685 32.7106 131.047 32.7106ZM131.047 30.2057C132.291 30.2057 133.315 29.8866 134.119 29.2486C134.922 28.6105 135.517 27.7716 135.903 26.7318C136.289 25.692 136.482 24.5656 136.482 23.3525C136.482 22.1394 136.289 21.009 135.903 19.9613C135.517 18.9137 134.922 18.0669 134.119 17.4209C133.315 16.775 132.291 16.452 131.047 16.452C129.802 16.452 128.778 16.775 127.975 17.4209C127.171 18.0669 126.577 18.9137 126.191 19.9613C125.805 21.009 125.612 22.1394 125.612 23.3525C125.612 24.5656 125.805 25.692 126.191 26.7318C126.577 27.7716 127.171 28.6105 127.975 29.2486C128.778 29.8866 129.802 30.2057 131.047 30.2057ZM143.527 32.3325V14.1834H146.221V17.0192H146.458C146.836 16.0503 147.446 15.298 148.289 14.7624C149.132 14.2188 150.144 13.9471 151.326 13.9471C152.523 13.9471 153.52 14.2188 154.315 14.7624C155.119 15.298 155.745 16.0503 156.194 17.0192H156.383C156.848 16.0818 157.545 15.3374 158.474 14.786C159.404 14.2267 160.518 13.9471 161.818 13.9471C163.441 13.9471 164.768 14.4552 165.8 15.4713C166.832 16.4796 167.348 18.0511 167.348 20.1858V32.3325H164.56V20.1858C164.56 18.8467 164.193 17.8896 163.461 17.3146C162.728 16.7396 161.865 16.452 160.873 16.452C159.597 16.452 158.608 16.838 157.907 17.61C157.206 18.3741 156.856 19.343 156.856 20.5167V32.3325H154.02V19.9023C154.02 18.8703 153.685 18.0393 153.015 17.4091C152.346 16.7711 151.483 16.452 150.428 16.452C149.703 16.452 149.026 16.645 148.395 17.031C147.773 17.417 147.269 17.9526 146.883 18.638C146.505 19.3154 146.316 20.0992 146.316 20.9893V32.3325H143.527ZM172.447 32.3325V14.1834H175.141V17.0192H175.377C175.755 16.0503 176.365 15.298 177.208 14.7624C178.051 14.2188 179.063 13.9471 180.245 13.9471C181.442 13.9471 182.439 14.2188 183.234 14.7624C184.038 15.298 184.664 16.0503 185.113 17.0192H185.302C185.767 16.0818 186.464 15.3374 187.394 14.786C188.323 14.2267 189.438 13.9471 190.737 13.9471C192.36 13.9471 193.688 14.4552 194.719 15.4713C195.751 16.4796 196.267 18.0511 196.267 20.1858V32.3325H193.479V20.1858C193.479 18.8467 193.112 17.8896 192.38 17.3146C191.647 16.7396 190.785 16.452 189.792 16.452C188.516 16.452 187.528 16.838 186.826 17.61C186.125 18.3741 185.775 19.343 185.775 20.5167V32.3325H182.939V19.9023C182.939 18.8703 182.604 18.0393 181.935 17.4091C181.265 16.7711 180.403 16.452 179.347 16.452C178.622 16.452 177.945 16.645 177.315 17.031C176.692 17.417 176.188 17.9526 175.802 18.638C175.424 19.3154 175.235 20.0992 175.235 20.9893V32.3325H172.447ZM208.975 32.7106C207.226 32.7106 205.718 32.3246 204.45 31.5527C203.189 30.7728 202.217 29.6858 201.531 28.2915C200.854 26.8894 200.515 25.2588 200.515 23.3997C200.515 21.5407 200.854 19.9023 201.531 18.4844C202.217 17.0586 203.17 15.9479 204.391 15.1523C205.62 14.3488 207.053 13.9471 208.692 13.9471C209.637 13.9471 210.57 14.1046 211.492 14.4197C212.414 14.7348 213.253 15.2468 214.009 15.9558C214.765 16.6568 215.368 17.5864 215.817 18.7443C216.266 19.9023 216.49 21.328 216.49 23.0216V24.2032H202.5V21.7928H213.654C213.654 20.7688 213.449 19.855 213.04 19.0515C212.638 18.248 212.063 17.6139 211.315 17.1492C210.574 16.6844 209.7 16.452 208.692 16.452C207.581 16.452 206.62 16.7277 205.809 17.2791C205.005 17.8227 204.387 18.5316 203.954 19.406C203.52 20.2804 203.304 21.2178 203.304 22.2182V23.8251C203.304 25.1958 203.54 26.3576 204.013 27.3108C204.493 28.2561 205.159 28.9768 206.009 29.4731C206.86 29.9615 207.849 30.2057 208.975 30.2057C209.708 30.2057 210.37 30.1033 210.96 29.8985C211.559 29.6858 212.075 29.3707 212.508 28.9532C212.941 28.5278 213.276 28 213.513 27.3699L216.207 28.1261C215.923 29.0398 215.446 29.8433 214.777 30.5365C214.107 31.2218 213.28 31.7575 212.295 32.1435C211.311 32.5216 210.204 32.7106 208.975 32.7106ZM220.732 32.3325V14.1834H223.426V16.9247H223.615C223.946 16.0267 224.545 15.298 225.411 14.7387C226.278 14.1795 227.254 13.8998 228.341 13.8998C228.546 13.8998 228.802 13.9037 229.109 13.9116C229.417 13.9195 229.649 13.9313 229.807 13.9471V16.7829C229.712 16.7592 229.495 16.7238 229.157 16.6765C228.826 16.6214 228.475 16.5938 228.105 16.5938C227.223 16.5938 226.435 16.7789 225.742 17.1492C225.057 17.5115 224.513 18.0157 224.111 18.6616C223.717 19.2996 223.521 20.0283 223.521 20.8475V32.3325H220.732ZM239.933 32.7106C238.231 32.7106 236.766 32.3089 235.537 31.5054C234.308 30.7019 233.363 29.5952 232.701 28.1852C232.04 26.7751 231.709 25.1642 231.709 23.3525C231.709 21.5092 232.048 19.8826 232.725 18.4725C233.41 17.0546 234.364 15.9479 235.585 15.1523C236.813 14.3488 238.247 13.9471 239.885 13.9471C241.162 13.9471 242.312 14.1834 243.336 14.656C244.36 15.1287 245.199 15.7903 245.852 16.6411C246.506 17.4918 246.912 18.4844 247.07 19.6187H244.281C244.068 18.7916 243.596 18.059 242.863 17.4209C242.138 16.775 241.162 16.452 239.933 16.452C238.846 16.452 237.893 16.7356 237.073 17.3028C236.262 17.8621 235.628 18.6537 235.171 19.6778C234.722 20.6939 234.497 21.8873 234.497 23.258C234.497 24.6601 234.718 25.8811 235.159 26.9209C235.608 27.9607 236.238 28.7681 237.05 29.3431C237.869 29.9182 238.83 30.2057 239.933 30.2057C240.657 30.2057 241.315 30.0796 241.906 29.8276C242.497 29.5755 242.997 29.2131 243.407 28.7405C243.816 28.2679 244.108 27.7007 244.281 27.039H247.07C246.912 28.1103 246.522 29.0753 245.9 29.9339C245.285 30.7846 244.47 31.4621 243.454 31.9662C242.446 32.4625 241.272 32.7106 239.933 32.7106ZM258.755 32.7106C257.007 32.7106 255.498 32.3246 254.23 31.5527C252.97 30.7728 251.997 29.6858 251.311 28.2915C250.634 26.8894 250.295 25.2588 250.295 23.3997C250.295 21.5407 250.634 19.9023 251.311 18.4844C251.997 17.0586 252.95 15.9479 254.171 15.1523C255.4 14.3488 256.833 13.9471 258.472 13.9471C259.417 13.9471 260.351 14.1046 261.272 14.4197C262.194 14.7348 263.033 15.2468 263.789 15.9558C264.545 16.6568 265.148 17.5864 265.597 18.7443C266.046 19.9023 266.27 21.328 266.27 23.0216V24.2032H252.28V21.7928H263.434C263.434 20.7688 263.23 19.855 262.82 19.0515C262.418 18.248 261.843 17.6139 261.095 17.1492C260.354 16.6844 259.48 16.452 258.472 16.452C257.361 16.452 256.4 16.7277 255.589 17.2791C254.785 17.8227 254.167 18.5316 253.734 19.406C253.3 20.2804 253.084 21.2178 253.084 22.2182V23.8251C253.084 25.1958 253.32 26.3576 253.793 27.3108C254.273 28.2561 254.939 28.9768 255.79 29.4731C256.64 29.9615 257.629 30.2057 258.755 30.2057C259.488 30.2057 260.15 30.1033 260.74 29.8985C261.339 29.6858 261.855 29.3707 262.288 28.9532C262.722 28.5278 263.056 28 263.293 27.3699L265.987 28.1261C265.703 29.0398 265.227 29.8433 264.557 30.5365C263.887 31.2218 263.06 31.7575 262.076 32.1435C261.091 32.5216 259.984 32.7106 258.755 32.7106ZM280.248 8.13368H283.746L291.97 28.2206H292.253L300.477 8.13368H303.975V32.3325H301.233V13.9471H300.997L293.435 32.3325H290.788L283.226 13.9471H282.99V32.3325H280.248V8.13368ZM317.081 32.7106C315.333 32.7106 313.824 32.3246 312.556 31.5527C311.295 30.7728 310.323 29.6858 309.637 28.2915C308.96 26.8894 308.621 25.2588 308.621 23.3997C308.621 21.5407 308.96 19.9023 309.637 18.4844C310.323 17.0586 311.276 15.9479 312.497 15.1523C313.726 14.3488 315.159 13.9471 316.798 13.9471C317.743 13.9471 318.676 14.1046 319.598 14.4197C320.52 14.7348 321.359 15.2468 322.115 15.9558C322.871 16.6568 323.474 17.5864 323.923 18.7443C324.372 19.9023 324.596 21.328 324.596 23.0216V24.2032H310.606V21.7928H321.76C321.76 20.7688 321.556 19.855 321.146 19.0515C320.744 18.248 320.169 17.6139 319.421 17.1492C318.68 16.6844 317.806 16.452 316.798 16.452C315.687 16.452 314.726 16.7277 313.915 17.2791C313.111 17.8227 312.493 18.5316 312.06 19.406C311.626 20.2804 311.41 21.2178 311.41 22.2182V23.8251C311.41 25.1958 311.646 26.3576 312.119 27.3108C312.599 28.2561 313.265 28.9768 314.116 29.4731C314.966 29.9615 315.955 30.2057 317.081 30.2057C317.814 30.2057 318.476 30.1033 319.066 29.8985C319.665 29.6858 320.181 29.3707 320.614 28.9532C321.047 28.5278 321.382 28 321.619 27.3699L324.313 28.1261C324.029 29.0398 323.552 29.8433 322.883 30.5365C322.213 31.2218 321.386 31.7575 320.402 32.1435C319.417 32.5216 318.31 32.7106 317.081 32.7106ZM341.694 18.248L339.189 18.957C339.031 18.5395 338.799 18.1338 338.492 17.74C338.192 17.3382 337.783 17.0074 337.263 16.7474C336.743 16.4875 336.077 16.3575 335.266 16.3575C334.155 16.3575 333.23 16.6135 332.489 17.1255C331.757 17.6297 331.39 18.2717 331.39 19.0515C331.39 19.7447 331.642 20.2922 332.146 20.6939C332.651 21.0957 333.438 21.4304 334.51 21.6983L337.204 22.36C338.826 22.7538 340.036 23.3564 340.831 24.1678C341.627 24.9713 342.025 26.0071 342.025 27.2753C342.025 28.3151 341.725 29.2446 341.127 30.0639C340.536 30.8831 339.709 31.529 338.645 32.0017C337.582 32.4743 336.345 32.7106 334.935 32.7106C333.084 32.7106 331.552 32.3089 330.339 31.5054C329.126 30.7019 328.358 29.5282 328.035 27.9843L330.681 27.3226C330.933 28.2994 331.41 29.032 332.111 29.5204C332.82 30.0087 333.746 30.2529 334.888 30.2529C336.188 30.2529 337.219 29.9772 337.984 29.4258C338.755 28.8665 339.141 28.197 339.141 27.4171C339.141 26.787 338.921 26.2592 338.48 25.8338C338.039 25.4006 337.361 25.0776 336.447 24.8649L333.423 24.156C331.76 23.7621 330.54 23.1516 329.76 22.3245C328.988 21.4895 328.602 20.4458 328.602 19.1933C328.602 18.1693 328.889 17.2634 329.464 16.4757C330.047 15.6879 330.839 15.0696 331.839 14.6206C332.848 14.1716 333.99 13.9471 335.266 13.9471C337.062 13.9471 338.472 14.3409 339.496 15.1287C340.528 15.9164 341.26 16.9562 341.694 18.248ZM359.078 18.248L356.573 18.957C356.415 18.5395 356.183 18.1338 355.876 17.74C355.576 17.3382 355.167 17.0074 354.647 16.7474C354.127 16.4875 353.461 16.3575 352.65 16.3575C351.539 16.3575 350.614 16.6135 349.873 17.1255C349.141 17.6297 348.774 18.2717 348.774 19.0515C348.774 19.7447 349.026 20.2922 349.531 20.6939C350.035 21.0957 350.822 21.4304 351.894 21.6983L354.588 22.36C356.21 22.7538 357.42 23.3564 358.215 24.1678C359.011 24.9713 359.409 26.0071 359.409 27.2753C359.409 28.3151 359.109 29.2446 358.511 30.0639C357.92 30.8831 357.093 31.529 356.029 32.0017C354.966 32.4743 353.729 32.7106 352.319 32.7106C350.468 32.7106 348.936 32.3089 347.723 31.5054C346.51 30.7019 345.742 29.5282 345.419 27.9843L348.065 27.3226C348.317 28.2994 348.794 29.032 349.495 29.5204C350.204 30.0087 351.13 30.2529 352.272 30.2529C353.572 30.2529 354.603 29.9772 355.368 29.4258C356.14 28.8665 356.526 28.197 356.526 27.4171C356.526 26.787 356.305 26.2592 355.864 25.8338C355.423 25.4006 354.745 25.0776 353.832 24.8649L350.807 24.156C349.145 23.7621 347.924 23.1516 347.144 22.3245C346.372 21.4895 345.986 20.4458 345.986 19.1933C345.986 18.1693 346.273 17.2634 346.848 16.4757C347.431 15.6879 348.223 15.0696 349.223 14.6206C350.232 14.1716 351.374 13.9471 352.65 13.9471C354.446 13.9471 355.856 14.3409 356.88 15.1287C357.912 15.9164 358.644 16.9562 359.078 18.248ZM368.947 32.7579C367.797 32.7579 366.753 32.5413 365.816 32.108C364.878 31.6669 364.134 31.0328 363.583 30.2057C363.031 29.3707 362.755 28.3624 362.755 27.1808C362.755 26.141 362.96 25.2982 363.37 24.6522C363.779 23.9984 364.327 23.4864 365.012 23.1162C365.698 22.7459 366.454 22.4702 367.281 22.2891C368.116 22.1 368.955 21.9503 369.798 21.8401C370.9 21.6983 371.795 21.5919 372.48 21.521C373.173 21.4423 373.677 21.3123 373.992 21.1311C374.315 20.9499 374.477 20.6348 374.477 20.1858V20.0913C374.477 18.9255 374.158 18.0196 373.52 17.3737C372.889 16.7277 371.932 16.4048 370.648 16.4048C369.317 16.4048 368.273 16.6962 367.517 17.2791C366.761 17.8621 366.229 18.4844 365.922 19.146L363.275 18.2008C363.748 17.098 364.378 16.2393 365.166 15.6249C365.961 15.0026 366.828 14.5694 367.765 14.3252C368.711 14.0731 369.64 13.9471 370.554 13.9471C371.137 13.9471 371.806 14.018 372.563 14.1598C373.327 14.2937 374.063 14.5733 374.772 14.9987C375.489 15.4241 376.084 16.066 376.556 16.9247C377.029 17.7833 377.265 18.9334 377.265 20.3749V32.3325H374.477V29.8748H374.335C374.146 30.2687 373.831 30.6901 373.39 31.1391C372.949 31.5881 372.362 31.9702 371.629 32.2853C370.897 32.6003 370.002 32.7579 368.947 32.7579ZM369.372 30.2529C370.475 30.2529 371.405 30.0363 372.161 29.6031C372.925 29.1698 373.5 28.6105 373.886 27.9252C374.28 27.2399 374.477 26.5191 374.477 25.7629V23.2107C374.359 23.3525 374.099 23.4825 373.697 23.6006C373.303 23.7109 372.846 23.8094 372.326 23.896C371.814 23.9748 371.314 24.0457 370.826 24.1087C370.345 24.1638 369.955 24.2111 369.656 24.2505C368.931 24.345 368.254 24.4986 367.624 24.7113C367.001 24.9161 366.497 25.2273 366.111 25.6448C365.733 26.0544 365.544 26.6137 365.544 27.3226C365.544 28.2915 365.902 29.0241 366.619 29.5204C367.344 30.0087 368.262 30.2529 369.372 30.2529ZM389.681 39.5165C388.334 39.5165 387.176 39.3433 386.207 38.9967C385.238 38.6579 384.431 38.2089 383.785 37.6496C383.147 37.0982 382.639 36.5074 382.26 35.8773L384.482 34.3176C384.734 34.6484 385.053 35.0265 385.439 35.4519C385.825 35.8851 386.353 36.2593 387.022 36.5744C387.7 36.8974 388.586 37.0589 389.681 37.0589C391.146 37.0589 392.355 36.7044 393.308 35.9954C394.261 35.2865 394.738 34.1758 394.738 32.6634V28.9768H394.502C394.297 29.3077 394.005 29.7173 393.627 30.2057C393.257 30.6862 392.721 31.1155 392.02 31.4936C391.327 31.8638 390.39 32.0489 389.208 32.0489C387.743 32.0489 386.427 31.7023 385.262 31.0091C384.104 30.3159 383.186 29.3077 382.509 27.9843C381.839 26.6609 381.504 25.054 381.504 23.1634C381.504 21.3044 381.831 19.6856 382.485 18.3071C383.139 16.9207 384.049 15.8494 385.214 15.0932C386.38 14.3291 387.727 13.9471 389.255 13.9471C390.437 13.9471 391.374 14.144 392.068 14.5379C392.769 14.9239 393.304 15.365 393.674 15.8612C394.053 16.3496 394.344 16.7514 394.549 17.0665H394.832V14.1834H397.526V32.8524C397.526 34.4121 397.172 35.6803 396.463 36.6571C395.762 37.6418 394.817 38.3625 393.627 38.8194C392.446 39.2842 391.13 39.5165 389.681 39.5165ZM389.586 29.544C390.705 29.544 391.65 29.288 392.422 28.776C393.194 28.2639 393.781 27.5274 394.183 26.5664C394.584 25.6054 394.785 24.4553 394.785 23.1162C394.785 21.8085 394.588 20.6545 394.194 19.6541C393.801 18.6537 393.218 17.8699 392.446 17.3028C391.674 16.7356 390.721 16.452 389.586 16.452C388.405 16.452 387.42 16.7514 386.632 17.35C385.852 17.9487 385.266 18.7522 384.872 19.7605C384.486 20.7688 384.293 21.8873 384.293 23.1162C384.293 24.3765 384.49 25.4911 384.884 26.46C385.285 27.4211 385.876 28.1773 386.656 28.7287C387.444 29.2722 388.42 29.544 389.586 29.544ZM410.24 32.7106C408.492 32.7106 406.983 32.3246 405.715 31.5527C404.455 30.7728 403.482 29.6858 402.796 28.2915C402.119 26.8894 401.78 25.2588 401.78 23.3997C401.78 21.5407 402.119 19.9023 402.796 18.4844C403.482 17.0586 404.435 15.9479 405.656 15.1523C406.885 14.3488 408.318 13.9471 409.957 13.9471C410.902 13.9471 411.835 14.1046 412.757 14.4197C413.679 14.7348 414.518 15.2468 415.274 15.9558C416.03 16.6568 416.633 17.5864 417.082 18.7443C417.531 19.9023 417.755 21.328 417.755 23.0216V24.2032H403.765V21.7928H414.919C414.919 20.7688 414.715 19.855 414.305 19.0515C413.903 18.248 413.328 17.6139 412.58 17.1492C411.839 16.6844 410.965 16.452 409.957 16.452C408.846 16.452 407.885 16.7277 407.074 17.2791C406.27 17.8227 405.652 18.5316 405.219 19.406C404.785 20.2804 404.569 21.2178 404.569 22.2182V23.8251C404.569 25.1958 404.805 26.3576 405.278 27.3108C405.758 28.2561 406.424 28.9768 407.275 29.4731C408.125 29.9615 409.114 30.2057 410.24 30.2057C410.973 30.2057 411.635 30.1033 412.225 29.8985C412.824 29.6858 413.34 29.3707 413.773 28.9532C414.207 28.5278 414.541 28 414.778 27.3699L417.472 28.1261C417.188 29.0398 416.711 29.8433 416.042 30.5365C415.372 31.2218 414.545 31.7575 413.561 32.1435C412.576 32.5216 411.469 32.7106 410.24 32.7106Z" fill="#A3A3A3"/>
</svg>
