<svg width="112" height="24" viewBox="0 0 112 24" fill="none" xmlns="http://www.w3.org/2000/svg">
<g clip-path="url(#clip0_0_1)">
<path d="M36.99 4.1C36.1414 4.1114 35.3097 4.33861 34.5732 4.76023C33.8366 5.18186 33.2195 5.78401 32.78 6.51V4.95999C32.78 4.72395 32.6862 4.49758 32.5193 4.33067C32.3524 4.16376 32.126 4.07 31.89 4.07C31.654 4.07 31.4276 4.16376 31.2607 4.33067C31.0938 4.49758 31 4.72395 31 4.95999V19.14C31 19.376 31.0938 19.6024 31.2607 19.7693C31.4276 19.9362 31.654 20.03 31.89 20.03C32.126 20.03 32.3524 19.9362 32.5193 19.7693C32.6862 19.6024 32.78 19.376 32.78 19.14V13.49C33.223 14.2128 33.8409 14.8124 34.5767 15.2336C35.3124 15.6548 36.1424 15.884 36.99 15.9C39.87 15.9 42.25 13.26 42.25 10.03C42.25 6.79999 39.87 4.1 36.99 4.1ZM36.59 14.44C35.4942 14.3604 34.4736 13.8536 33.7479 13.0287C33.0221 12.2039 32.6494 11.127 32.71 10.03C32.6358 8.92466 33.0023 7.83492 33.7294 6.99911C34.4565 6.1633 35.485 5.64947 36.59 5.57C37.6968 5.64695 38.7278 6.1597 39.4571 6.99579C40.1863 7.83187 40.5542 8.92305 40.48 10.03C40.5405 11.1286 40.1664 12.2069 39.4386 13.032C38.7107 13.8571 37.6876 14.3629 36.59 14.44ZM54.25 4.03C54.486 4.03 54.7124 4.12376 54.8793 4.29067C55.0462 4.45758 55.14 4.68395 55.14 4.92V14.92C55.14 15.156 55.0462 15.3824 54.8793 15.5493C54.7124 15.7162 54.486 15.81 54.25 15.81C54.014 15.81 53.7876 15.7162 53.6207 15.5493C53.4538 15.3824 53.36 15.156 53.36 14.92V13.5C52.9205 14.226 52.3034 14.8281 51.5668 15.2498C50.8303 15.6714 49.9986 15.8986 49.15 15.91C46.27 15.91 43.93 13.26 43.93 10C43.93 6.74 46.25 4.1 49.13 4.1C49.9786 4.11709 50.8091 4.34778 51.545 4.77076C52.2808 5.19373 52.8982 5.79534 53.34 6.51999V4.95999C53.3345 4.83809 53.3541 4.71636 53.3976 4.60236C53.4411 4.48836 53.5076 4.38452 53.593 4.2973C53.6783 4.21008 53.7807 4.14135 53.8937 4.09536C54.0067 4.04938 54.128 4.02713 54.25 4.03ZM49.55 14.41C50.6367 14.3254 51.6477 13.8207 52.3684 13.0029C53.0891 12.1852 53.4627 11.1187 53.41 10.03C53.4787 8.92638 53.1083 7.84037 52.3796 7.00867C51.651 6.17697 50.6231 5.66703 49.52 5.59C48.4187 5.66954 47.3934 6.18057 46.6668 7.01199C45.9403 7.8434 45.5713 8.928 45.64 10.03C45.5741 11.1319 45.9457 12.2154 46.6741 13.0449C47.4025 13.8744 48.4288 14.3829 49.53 14.46L49.55 14.41ZM90.34 4.14999C90.5524 4.24805 90.7176 4.42579 90.8 4.64475C90.8823 4.86371 90.8751 5.10628 90.78 5.32L86.42 15.03C86.3445 15.1889 86.2255 15.3231 86.0768 15.417C85.9282 15.511 85.7559 15.5609 85.58 15.5609C85.4041 15.5609 85.2318 15.511 85.0832 15.417C84.9345 15.3231 84.8155 15.1889 84.74 15.03L80.37 5.32C80.3137 5.21254 80.28 5.0947 80.2709 4.97373C80.2618 4.85276 80.2775 4.73121 80.3171 4.61653C80.3567 4.50186 80.4193 4.39649 80.5011 4.3069C80.5829 4.21731 80.6821 4.14538 80.7927 4.09554C80.9033 4.04571 81.0229 4.019 81.1442 4.01708C81.2655 4.01516 81.3859 4.03805 81.4981 4.08436C81.6102 4.13066 81.7117 4.1994 81.7963 4.28636C81.8809 4.37331 81.9468 4.47664 81.99 4.59L85.58 12.59L89.17 4.59C89.2662 4.37582 89.4432 4.20835 89.6623 4.12406C89.8815 4.03978 90.1251 4.0455 90.34 4.14V4.14999ZM66.86 4.14999C67.0742 4.24622 67.2416 4.42318 67.3259 4.64233C67.4102 4.86148 67.4045 5.10505 67.31 5.32L61 19.32C60.8947 19.521 60.7166 19.6742 60.5021 19.7482C60.2876 19.8223 60.0529 19.8116 59.846 19.7184C59.6391 19.6252 59.4756 19.4564 59.389 19.2467C59.3024 19.0369 59.2992 18.802 59.38 18.59L61.14 14.69L56.9 5.33C56.8437 5.22254 56.81 5.1047 56.8009 4.98373C56.7918 4.86276 56.8075 4.74121 56.8471 4.62653C56.8867 4.51186 56.9493 4.40649 57.0311 4.3169C57.1129 4.22731 57.2121 4.15538 57.3227 4.10555C57.4333 4.05571 57.5529 4.029 57.6742 4.02708C57.7955 4.02516 57.916 4.04805 58.0281 4.09436C58.1402 4.14066 58.2417 4.2094 58.3263 4.29635C58.4109 4.38331 58.4768 4.48664 58.52 4.6L62.11 12.6L65.69 4.6C65.7881 4.38761 65.9658 4.22237 66.1848 4.14002C66.4037 4.05768 66.6463 4.06485 66.86 4.16V4.14999ZM111 4.09C111.208 4.09768 111.405 4.18505 111.55 4.33398C111.695 4.48291 111.778 4.682 111.78 4.89C111.772 5.09351 111.688 5.28648 111.543 5.42955C111.398 5.57263 111.204 5.65504 111 5.66H110.51C109.975 5.68017 109.449 5.80762 108.964 6.03479C108.479 6.26196 108.045 6.58422 107.686 6.98245C107.328 7.38069 107.054 7.84679 106.879 8.35311C106.705 8.85943 106.633 9.39566 106.67 9.92999V15.07C106.671 15.1701 106.652 15.2693 106.614 15.3619C106.576 15.4546 106.52 15.5389 106.45 15.61C106.379 15.6804 106.295 15.7361 106.202 15.7738C106.109 15.8116 106.01 15.8307 105.91 15.83H105.66C105.458 15.83 105.265 15.7499 105.123 15.6074C104.98 15.4649 104.9 15.2716 104.9 15.07V4.83C104.895 4.72688 104.91 4.62373 104.946 4.52686C104.982 4.42998 105.037 4.34141 105.108 4.26654C105.179 4.19168 105.265 4.13209 105.36 4.09142C105.455 4.05075 105.557 4.02985 105.66 4.03H105.91C106.01 4.02931 106.109 4.04839 106.202 4.08615C106.295 4.1239 106.379 4.17958 106.45 4.24999C106.52 4.32109 106.576 4.40539 106.614 4.49806C106.652 4.59072 106.671 4.68994 106.67 4.79V6.79C107.047 5.98954 107.64 5.31006 108.382 4.82782C109.124 4.34559 109.985 4.0797 110.87 4.06L111 4.09ZM73.81 4.03C74.5673 4.04558 75.3141 4.21039 76.0077 4.51498C76.7012 4.81958 77.3279 5.25798 77.8518 5.80509C78.3756 6.3522 78.7865 6.99726 79.0607 7.70336C79.335 8.40945 79.4673 9.16271 79.45 9.92V10C79.4513 10.0233 79.4513 10.0467 79.45 10.07C79.4304 10.2451 79.3474 10.4069 79.2165 10.5248C79.0857 10.6428 78.9161 10.7086 78.74 10.71H70.16C70.2865 11.6579 70.7485 12.5291 71.4621 13.1657C72.1758 13.8023 73.0939 14.1621 74.05 14.18C75.2239 14.2164 76.3678 13.8053 77.25 13.03C77.3609 12.9097 77.5132 12.8357 77.6763 12.8227C77.8394 12.8097 78.0014 12.8587 78.13 12.96H78.19C78.2711 13.0245 78.3379 13.1051 78.3863 13.1968C78.4347 13.2884 78.4635 13.3891 78.471 13.4925C78.4785 13.5958 78.4646 13.6996 78.43 13.7973C78.3954 13.895 78.3409 13.9844 78.27 14.06C77.0655 15.1696 75.4773 15.7683 73.84 15.73C72.3113 15.6959 70.8587 15.0564 69.8012 13.952C68.7437 12.8477 68.1678 11.3687 68.2 9.84C68.189 8.33011 68.7702 6.87605 69.819 5.78984C70.8678 4.70363 72.3007 4.07182 73.81 4.03ZM70.13 9.25H77.84C77.7517 8.28809 77.3182 7.39064 76.6198 6.72341C75.9213 6.05618 75.0049 5.66425 74.04 5.62C73.0604 5.65284 72.1256 6.0381 71.4072 6.70497C70.6889 7.37184 70.2354 8.27553 70.13 9.25ZM97.14 4.03C97.8973 4.04558 98.6441 4.21039 99.3377 4.51498C100.031 4.81958 100.658 5.25798 101.182 5.80509C101.706 6.3522 102.116 6.99726 102.391 7.70336C102.665 8.40945 102.797 9.16271 102.78 9.92V10.03C102.76 10.2051 102.677 10.3669 102.547 10.4848C102.416 10.6028 102.246 10.6686 102.07 10.67H93.49C93.6165 11.6179 94.0785 12.4891 94.7921 13.1257C95.5058 13.7623 96.4239 14.1221 97.38 14.14C98.5418 14.1823 99.6769 13.7861 100.56 13.03C100.671 12.9097 100.823 12.8357 100.986 12.8227C101.149 12.8097 101.311 12.8587 101.44 12.96H101.5C101.581 13.0245 101.648 13.1051 101.696 13.1968C101.745 13.2884 101.774 13.3891 101.781 13.4925C101.789 13.5958 101.775 13.6996 101.74 13.7973C101.705 13.895 101.651 13.9844 101.58 14.06C100.375 15.1696 98.7873 15.7683 97.15 15.73C95.6213 15.6959 94.1687 15.0564 93.1112 13.952C92.0537 12.8477 91.4778 11.3687 91.51 9.84C91.4991 8.32674 92.0831 6.86975 93.1362 5.78299C94.1893 4.69622 95.6271 4.06667 97.14 4.03ZM93.47 9.25H101.18C101.092 8.28809 100.658 7.39064 99.9597 6.72341C99.2613 6.05618 98.3449 5.66425 97.38 5.62C96.4004 5.65284 95.4656 6.0381 94.7473 6.70497C94.0289 7.37184 93.5754 8.27553 93.47 9.25Z" fill="#636366"/>
</g>
<g clip-path="url(#clip1_0_1)">
<path fill-rule="evenodd" clip-rule="evenodd" d="M11.9906 24C5.36329 23.9948 -0.00516093 18.6181 3.72333e-06 11.9907C0.00516838 5.36322 5.38192 -0.00516095 12.0094 3.7234e-06C18.6331 0.00508373 24 5.37618 24 12C24 18.6274 18.6274 24 12 24H11.9906ZM11.9908 1.5C6.19186 1.50509 1.49492 6.21021 1.5 12.0092C1.50509 17.8082 6.21021 22.5051 12.0093 22.5C17.8082 22.4949 22.5051 17.7898 22.5 11.9908C22.495 6.19186 17.7899 1.49492 11.9908 1.5ZM12 19C8.13401 19 5 15.866 5 12C5 8.13401 8.13401 5 12 5C15.8661 5 19 8.13401 19 12C19 15.866 15.8661 19 12 19Z" fill="#636366"/>
</g>
<defs>
<clipPath id="clip0_0_1">
<rect width="80.78" height="16.03" fill="white" transform="translate(31 4)"/>
</clipPath>
<clipPath id="clip1_0_1">
<rect width="24" height="24" fill="white"/>
</clipPath>
</defs>
</svg>