<svg width="202" height="25" viewBox="0 0 202 25" fill="none" xmlns="http://www.w3.org/2000/svg">
<path fill-rule="evenodd" clip-rule="evenodd" d="M93.5445 7.47461C90.4153 7.47461 87.8789 10.1098 87.8789 13.3608C87.8789 16.6118 90.4153 19.2477 93.5445 19.2477C95.1373 19.2477 96.9683 18.6731 97.9947 17.5738C98.1393 17.4209 98.2133 17.2147 98.1988 17.005C98.1843 16.7954 98.0826 16.6013 97.9184 16.4695L97.8613 16.424C97.5942 16.2136 97.2094 16.2446 96.9797 16.4951C96.2607 17.2652 94.8791 17.6328 93.7842 17.6328C91.8426 17.6328 90.2277 16.1396 89.8811 14.1579H98.4926C98.8594 14.1574 99.1669 13.8815 99.2058 13.5179V13.4184V13.3643C99.2101 10.1098 96.6737 7.47461 93.5445 7.47461ZM70.1085 7.47852C66.9796 7.47852 64.4434 10.1137 64.4434 13.3647C64.4434 16.6157 66.9796 19.2516 70.1085 19.2516C71.7011 19.2516 73.5319 18.677 74.5582 17.5777C74.7028 17.4248 74.7768 17.2186 74.7623 17.0089C74.7478 16.7993 74.6462 16.6052 74.4819 16.4734L74.4249 16.4279C74.1578 16.2175 73.773 16.2485 73.5433 16.499C72.8244 17.2691 71.4429 17.6367 70.3481 17.6367C68.4067 17.6367 66.792 16.1435 66.4454 14.1618H75.0561C75.4228 14.1613 75.7303 13.8854 75.7693 13.5218C75.7706 13.4981 75.7706 13.4744 75.7693 13.4507V13.4244V13.3704C75.7736 10.1137 73.2374 7.47852 70.1085 7.47852ZM86.0322 7.60723C86.2532 7.5236 86.4986 7.53086 86.7142 7.6274C87.163 7.8288 87.3629 8.35419 87.1607 8.80101L82.7744 18.515C82.6171 18.8352 82.2904 19.0382 81.9324 19.0382C81.5744 19.0382 81.2477 18.8352 81.0904 18.515L76.7034 8.80101C76.6064 8.58626 76.5991 8.34194 76.6831 8.12182C76.7671 7.90171 76.9356 7.72385 77.1513 7.6274C77.3671 7.53041 77.6128 7.52292 77.8341 7.60657C78.0555 7.69023 78.2343 7.85816 78.331 8.07327L81.9335 16.0506L85.5359 8.07327C85.6327 7.85852 85.8112 7.69086 86.0322 7.60723ZM49.5526 8.44102C49.5526 7.95043 49.9522 7.55273 50.4452 7.55273C50.6819 7.55255 50.9091 7.64607 51.0765 7.8127C51.2439 7.97932 51.3379 8.20537 51.3377 8.44102V18.4281C51.3379 18.6638 51.2439 18.8898 51.0765 19.0564C50.9091 19.2231 50.6819 19.3166 50.4452 19.3164C49.9522 19.3164 49.5526 18.9187 49.5526 18.4281V16.9841C48.5979 18.4466 47.0605 19.3967 45.3261 19.3967C42.4299 19.3967 40.082 16.7503 40.082 13.4864C40.082 10.2225 42.4299 7.57619 45.3261 7.57619C47.0605 7.57619 48.5979 8.52913 49.5526 9.99231V8.44102ZM33.1279 7.58377C31.3934 7.58377 29.8561 8.53199 28.9014 9.99511V8.44121C28.9014 7.9516 28.5017 7.55469 28.0088 7.55469C27.5158 7.55469 27.1162 7.9516 27.1162 8.44121V22.6256C27.1162 23.1152 27.5158 23.5121 28.0088 23.5121C28.5017 23.5121 28.9014 23.1152 28.9014 22.6256V16.9731C29.8561 18.4327 31.3934 19.3809 33.1279 19.3809C36.0241 19.3809 38.3719 16.7398 38.3719 13.4823C38.3719 10.2249 36.0241 7.58377 33.1279 7.58377ZM32.7323 17.919C30.5759 17.919 28.8271 15.9332 28.8271 13.4836C28.8271 11.0339 30.5759 9.04883 32.7323 9.04883C34.8888 9.04883 36.6375 11.0346 36.6375 13.4836C36.6375 15.9325 34.8888 17.919 32.7323 17.919ZM45.7199 17.9327C43.5634 17.9327 41.8154 15.9429 41.8154 13.4885C41.8154 11.034 43.5627 9.04492 45.7199 9.04492C47.8771 9.04492 49.6251 11.0347 49.6251 13.4885C49.6251 15.9422 47.8771 17.9327 45.7199 17.9327ZM63.1353 7.6366C62.6862 7.43613 62.1588 7.63546 61.9568 8.08199L58.3564 16.0509L54.7554 8.08199C54.6274 7.7891 54.351 7.58731 54.0317 7.55375C53.7124 7.52019 53.3997 7.66005 53.213 7.91987C53.0264 8.1797 52.9946 8.51932 53.1299 8.80895L57.379 18.2126L55.6159 22.1133C55.5189 22.3277 55.5117 22.5717 55.5956 22.7915C55.6796 23.0112 55.848 23.1888 56.0636 23.285C56.2794 23.3825 56.5254 23.3906 56.7471 23.3074C56.9689 23.2242 57.1483 23.0567 57.2457 22.8417L63.583 8.80895C63.68 8.59443 63.6873 8.35037 63.6033 8.13049C63.5194 7.91062 63.351 7.73295 63.1353 7.6366ZM107.332 7.58011H107.464C107.9 7.59124 108.248 7.94697 108.25 8.38336C108.25 8.80063 107.889 9.14681 107.463 9.15605C107.356 9.15983 107.249 9.15859 107.14 9.15733C107.085 9.15669 107.03 9.15605 106.974 9.15605C104.85 9.15605 103.115 10.9701 103.115 13.4247V18.5599C103.115 18.7621 103.035 18.956 102.892 19.0989C102.749 19.2419 102.555 19.3221 102.353 19.3219H102.101C101.681 19.3219 101.34 18.9807 101.34 18.5599V8.31086C101.34 7.89 101.681 7.54883 102.101 7.54883H102.353C102.555 7.54864 102.749 7.62884 102.892 7.77177C103.035 7.9147 103.115 8.10863 103.115 8.31086V10.3133C103.98 8.67623 105.5 7.58011 107.332 7.58011ZM70.3461 9.09375C68.3527 9.09375 66.7023 10.6716 66.417 12.7287H74.1633C73.878 10.6716 72.3396 9.09375 70.3461 9.09375ZM93.782 9.08984C91.7884 9.08984 90.1379 10.6677 89.8525 12.7248H97.5995C97.3142 10.6677 95.7756 9.08984 93.782 9.08984Z" fill="#7A7A7A"/>
<path fill-rule="evenodd" clip-rule="evenodd" d="M10.8546 3.49456C7.25948 3.46182 3.92303 5.3519 2.11437 8.44584C0.305711 11.5398 0.302845 15.362 2.10686 18.4587C3.91088 21.5553 7.24449 23.4503 10.8396 23.4229H10.8475C16.3412 23.3788 20.772 18.9328 20.7739 13.4623C20.7759 7.99175 16.3483 3.54259 10.8546 3.49456ZM10.8575 22.347C5.94927 22.3511 1.96702 18.3924 1.96289 13.5051C1.95877 8.61783 5.93433 4.65255 10.8426 4.64844C14.0176 4.64578 16.9529 6.32999 18.5428 9.06663C20.1326 11.8033 20.1355 15.1766 18.5503 17.9159C16.965 20.6552 14.0326 22.3443 10.8575 22.347ZM10.9023 19.8098C14.3449 19.8098 17.1357 17.0314 17.1357 13.6041C17.1357 10.1768 14.3449 7.39844 10.9023 7.39844C7.45972 7.39844 4.66895 10.1768 4.66895 13.6041C4.66895 17.0314 7.45972 19.8098 10.9023 19.8098Z" fill="#7A7A7A"/>
<path d="M117.508 4.132H120.511L125.236 15.388H125.32L130.003 4.132H133.006V19H130.99V6.778H130.948L125.929 19H124.585L119.566 6.778H119.524V19H117.508V4.132ZM137.631 14.716C137.631 15.15 137.722 15.549 137.904 15.913C138.1 16.263 138.352 16.564 138.66 16.816C138.968 17.068 139.325 17.264 139.731 17.404C140.137 17.544 140.557 17.614 140.991 17.614C141.579 17.614 142.09 17.481 142.524 17.215C142.958 16.935 143.357 16.571 143.721 16.123L145.149 17.215C144.099 18.573 142.629 19.252 140.739 19.252C139.955 19.252 139.241 19.119 138.597 18.853C137.967 18.587 137.428 18.223 136.98 17.761C136.546 17.285 136.21 16.732 135.972 16.102C135.734 15.458 135.615 14.765 135.615 14.023C135.615 13.281 135.741 12.595 135.993 11.965C136.259 11.321 136.616 10.768 137.064 10.306C137.526 9.83 138.072 9.459 138.702 9.193C139.332 8.927 140.018 8.794 140.76 8.794C141.642 8.794 142.384 8.948 142.986 9.256C143.602 9.564 144.106 9.97 144.498 10.474C144.89 10.964 145.17 11.524 145.338 12.154C145.52 12.77 145.611 13.4 145.611 14.044V14.716H137.631ZM143.595 13.204C143.581 12.784 143.511 12.399 143.385 12.049C143.273 11.699 143.098 11.398 142.86 11.146C142.622 10.88 142.321 10.677 141.957 10.537C141.607 10.383 141.194 10.306 140.718 10.306C140.256 10.306 139.829 10.397 139.437 10.579C139.059 10.747 138.737 10.971 138.471 11.251C138.205 11.531 137.995 11.846 137.841 12.196C137.701 12.532 137.631 12.868 137.631 13.204H143.595ZM153.164 11.545C152.94 11.265 152.66 11.034 152.324 10.852C152.002 10.656 151.603 10.558 151.127 10.558C150.679 10.558 150.287 10.656 149.951 10.852C149.629 11.034 149.468 11.307 149.468 11.671C149.468 11.965 149.559 12.203 149.741 12.385C149.937 12.567 150.161 12.714 150.413 12.826C150.679 12.938 150.959 13.022 151.253 13.078C151.547 13.134 151.799 13.183 152.009 13.225C152.415 13.323 152.793 13.442 153.143 13.582C153.507 13.722 153.815 13.904 154.067 14.128C154.333 14.352 154.536 14.625 154.676 14.947C154.83 15.269 154.907 15.661 154.907 16.123C154.907 16.683 154.788 17.166 154.55 17.572C154.312 17.964 154.004 18.286 153.626 18.538C153.248 18.79 152.814 18.972 152.324 19.084C151.848 19.196 151.365 19.252 150.875 19.252C150.049 19.252 149.321 19.126 148.691 18.874C148.075 18.622 147.522 18.16 147.032 17.488L148.46 16.312C148.768 16.62 149.111 16.893 149.489 17.131C149.867 17.369 150.329 17.488 150.875 17.488C151.113 17.488 151.351 17.467 151.589 17.425C151.841 17.369 152.058 17.292 152.24 17.194C152.436 17.082 152.59 16.949 152.702 16.795C152.828 16.627 152.891 16.438 152.891 16.228C152.891 15.948 152.8 15.717 152.618 15.535C152.45 15.353 152.24 15.213 151.988 15.115C151.75 15.003 151.491 14.919 151.211 14.863C150.945 14.793 150.707 14.737 150.497 14.695C150.091 14.597 149.706 14.485 149.342 14.359C148.978 14.233 148.656 14.065 148.376 13.855C148.096 13.645 147.872 13.379 147.704 13.057C147.536 12.735 147.452 12.336 147.452 11.86C147.452 11.342 147.557 10.894 147.767 10.516C147.991 10.124 148.278 9.802 148.628 9.55C148.992 9.298 149.398 9.109 149.846 8.983C150.308 8.857 150.77 8.794 151.232 8.794C151.904 8.794 152.548 8.92 153.164 9.172C153.78 9.424 154.27 9.844 154.634 10.432L153.164 11.545ZM162.495 11.545C162.271 11.265 161.991 11.034 161.655 10.852C161.333 10.656 160.934 10.558 160.458 10.558C160.01 10.558 159.618 10.656 159.282 10.852C158.96 11.034 158.799 11.307 158.799 11.671C158.799 11.965 158.89 12.203 159.072 12.385C159.268 12.567 159.492 12.714 159.744 12.826C160.01 12.938 160.29 13.022 160.584 13.078C160.878 13.134 161.13 13.183 161.34 13.225C161.746 13.323 162.124 13.442 162.474 13.582C162.838 13.722 163.146 13.904 163.398 14.128C163.664 14.352 163.867 14.625 164.007 14.947C164.161 15.269 164.238 15.661 164.238 16.123C164.238 16.683 164.119 17.166 163.881 17.572C163.643 17.964 163.335 18.286 162.957 18.538C162.579 18.79 162.145 18.972 161.655 19.084C161.179 19.196 160.696 19.252 160.206 19.252C159.38 19.252 158.652 19.126 158.022 18.874C157.406 18.622 156.853 18.16 156.363 17.488L157.791 16.312C158.099 16.62 158.442 16.893 158.82 17.131C159.198 17.369 159.66 17.488 160.206 17.488C160.444 17.488 160.682 17.467 160.92 17.425C161.172 17.369 161.389 17.292 161.571 17.194C161.767 17.082 161.921 16.949 162.033 16.795C162.159 16.627 162.222 16.438 162.222 16.228C162.222 15.948 162.131 15.717 161.949 15.535C161.781 15.353 161.571 15.213 161.319 15.115C161.081 15.003 160.822 14.919 160.542 14.863C160.276 14.793 160.038 14.737 159.828 14.695C159.422 14.597 159.037 14.485 158.673 14.359C158.309 14.233 157.987 14.065 157.707 13.855C157.427 13.645 157.203 13.379 157.035 13.057C156.867 12.735 156.783 12.336 156.783 11.86C156.783 11.342 156.888 10.894 157.098 10.516C157.322 10.124 157.609 9.802 157.959 9.55C158.323 9.298 158.729 9.109 159.177 8.983C159.639 8.857 160.101 8.794 160.563 8.794C161.235 8.794 161.879 8.92 162.495 9.172C163.111 9.424 163.601 9.844 163.965 10.432L162.495 11.545ZM166.576 10.264C167.108 9.774 167.724 9.41 168.424 9.172C169.124 8.92 169.824 8.794 170.524 8.794C171.252 8.794 171.875 8.885 172.393 9.067C172.925 9.249 173.359 9.494 173.695 9.802C174.031 10.11 174.276 10.467 174.43 10.873C174.598 11.265 174.682 11.678 174.682 12.112V17.194C174.682 17.544 174.689 17.866 174.703 18.16C174.717 18.454 174.738 18.734 174.766 19H173.086C173.044 18.496 173.023 17.992 173.023 17.488H172.981C172.561 18.132 172.064 18.587 171.49 18.853C170.916 19.119 170.251 19.252 169.495 19.252C169.033 19.252 168.592 19.189 168.172 19.063C167.752 18.937 167.381 18.748 167.059 18.496C166.751 18.244 166.506 17.936 166.324 17.572C166.142 17.194 166.051 16.76 166.051 16.27C166.051 15.626 166.191 15.087 166.471 14.653C166.765 14.219 167.157 13.869 167.647 13.603C168.151 13.323 168.732 13.127 169.39 13.015C170.062 12.889 170.776 12.826 171.532 12.826H172.918V12.406C172.918 12.154 172.869 11.902 172.771 11.65C172.673 11.398 172.526 11.174 172.33 10.978C172.134 10.768 171.889 10.607 171.595 10.495C171.301 10.369 170.951 10.306 170.545 10.306C170.181 10.306 169.859 10.341 169.579 10.411C169.313 10.481 169.068 10.572 168.844 10.684C168.62 10.782 168.417 10.901 168.235 11.041C168.053 11.181 167.878 11.314 167.71 11.44L166.576 10.264ZM171.91 14.212C171.462 14.212 171 14.24 170.524 14.296C170.062 14.338 169.635 14.429 169.243 14.569C168.865 14.709 168.55 14.905 168.298 15.157C168.06 15.409 167.941 15.731 167.941 16.123C167.941 16.697 168.13 17.11 168.508 17.362C168.9 17.614 169.425 17.74 170.083 17.74C170.601 17.74 171.042 17.656 171.406 17.488C171.77 17.306 172.064 17.075 172.288 16.795C172.512 16.515 172.673 16.207 172.771 15.871C172.869 15.521 172.918 15.178 172.918 14.842V14.212H171.91ZM187.399 18.916C187.399 19.672 187.266 20.358 187 20.974C186.748 21.604 186.384 22.143 185.908 22.591C185.432 23.053 184.858 23.41 184.186 23.662C183.514 23.914 182.772 24.04 181.96 24.04C181.008 24.04 180.133 23.907 179.335 23.641C178.551 23.375 177.802 22.913 177.088 22.255L178.369 20.659C178.859 21.191 179.391 21.59 179.965 21.856C180.539 22.136 181.19 22.276 181.918 22.276C182.618 22.276 183.199 22.171 183.661 21.961C184.123 21.765 184.487 21.506 184.753 21.184C185.033 20.862 185.229 20.491 185.341 20.071C185.453 19.665 185.509 19.252 185.509 18.832V17.362H185.446C185.082 17.964 184.585 18.412 183.955 18.706C183.339 18.986 182.688 19.126 182.002 19.126C181.274 19.126 180.595 19 179.965 18.748C179.349 18.482 178.817 18.125 178.369 17.677C177.921 17.215 177.571 16.676 177.319 16.06C177.067 15.43 176.941 14.751 176.941 14.023C176.941 13.295 177.06 12.616 177.298 11.986C177.536 11.342 177.872 10.782 178.306 10.306C178.754 9.83 179.286 9.459 179.902 9.193C180.532 8.927 181.232 8.794 182.002 8.794C182.674 8.794 183.325 8.941 183.955 9.235C184.599 9.529 185.103 9.942 185.467 10.474H185.509V9.046H187.399V18.916ZM182.233 10.558C181.729 10.558 181.274 10.649 180.868 10.831C180.462 10.999 180.119 11.237 179.839 11.545C179.559 11.839 179.342 12.203 179.188 12.637C179.034 13.057 178.957 13.519 178.957 14.023C178.957 15.031 179.251 15.843 179.839 16.459C180.427 17.061 181.225 17.362 182.233 17.362C183.241 17.362 184.039 17.061 184.627 16.459C185.215 15.843 185.509 15.031 185.509 14.023C185.509 13.519 185.432 13.057 185.278 12.637C185.124 12.203 184.907 11.839 184.627 11.545C184.347 11.237 184.004 10.999 183.598 10.831C183.192 10.649 182.737 10.558 182.233 10.558ZM191.69 14.716C191.69 15.15 191.781 15.549 191.963 15.913C192.159 16.263 192.411 16.564 192.719 16.816C193.027 17.068 193.384 17.264 193.79 17.404C194.196 17.544 194.616 17.614 195.05 17.614C195.638 17.614 196.149 17.481 196.583 17.215C197.017 16.935 197.416 16.571 197.78 16.123L199.208 17.215C198.158 18.573 196.688 19.252 194.798 19.252C194.014 19.252 193.3 19.119 192.656 18.853C192.026 18.587 191.487 18.223 191.039 17.761C190.605 17.285 190.269 16.732 190.031 16.102C189.793 15.458 189.674 14.765 189.674 14.023C189.674 13.281 189.8 12.595 190.052 11.965C190.318 11.321 190.675 10.768 191.123 10.306C191.585 9.83 192.131 9.459 192.761 9.193C193.391 8.927 194.077 8.794 194.819 8.794C195.701 8.794 196.443 8.948 197.045 9.256C197.661 9.564 198.165 9.97 198.557 10.474C198.949 10.964 199.229 11.524 199.397 12.154C199.579 12.77 199.67 13.4 199.67 14.044V14.716H191.69ZM197.654 13.204C197.64 12.784 197.57 12.399 197.444 12.049C197.332 11.699 197.157 11.398 196.919 11.146C196.681 10.88 196.38 10.677 196.016 10.537C195.666 10.383 195.253 10.306 194.777 10.306C194.315 10.306 193.888 10.397 193.496 10.579C193.118 10.747 192.796 10.971 192.53 11.251C192.264 11.531 192.054 11.846 191.9 12.196C191.76 12.532 191.69 12.868 191.69 13.204H197.654Z" fill="#7A7A7A"/>
</svg>
